<svg id="active_products_icon" data-name="active products_icon" xmlns="http://www.w3.org/2000/svg" width="60" height="60" viewBox="0 0 60 60">
  <rect id="Rectangle_3241" data-name="Rectangle 3241" width="60" height="60" fill="#fff"/>
  <g id="Group_5382" data-name="Group 5382" transform="translate(2.566 5.569)">
    <g id="Group_5383" data-name="Group 5383" transform="translate(3 0)">
      <path id="Path_6039" data-name="Path 6039" d="M14.513,7.251H7.257v7.256h7.255ZM12.1,12.084H9.679V9.667H12.1Zm9.667-2.417V7.251H19.346V4.834a2.426,2.426,0,0,0-2.417-2.417H14.513V0H12.1V2.417H9.679V0H7.262V2.417H4.834A2.426,2.426,0,0,0,2.417,4.834V7.251H0V9.667H2.417v2.417H0V14.5H2.417v2.417a2.424,2.424,0,0,0,2.417,2.417H7.25v2.417H9.667V19.335h2.417v2.417H14.5V19.335h2.417a2.426,2.426,0,0,0,2.417-2.417V14.5h2.423V12.084H19.341V9.667Zm-4.834,7.251H4.834V4.833h12.09Z" transform="translate(1.434 1.431)" fill="#ff7805"/>
      <path id="Path_6040" data-name="Path 6040" d="M23.705,35.326H16.448v7.256h7.257Zm-2.418,4.839H18.866V37.744h2.418Zm9.674-2.418V35.328H28.544V32.91a2.425,2.425,0,0,0-2.418-2.418H23.708V28.074H21.294v2.418H18.873V28.074H16.456v2.418H14.038A2.425,2.425,0,0,0,11.62,32.91v2.418H9.2v2.417h2.418v2.418H9.2v2.418h2.418V45a2.425,2.425,0,0,0,2.418,2.418h2.425v2.418h2.417V47.42H21.3v2.418h2.418V47.42h2.405A2.425,2.425,0,0,0,28.54,45V42.582h2.418V40.163H28.54V37.743ZM26.125,45H14.034V32.913H26.125Z" transform="translate(-7.758 -2.352)" fill="#083ecb"/>
      <path id="Path_6041" data-name="Path 6041" d="M42.591,35.326H35.335v7.256h7.257Zm-2.418,4.839H37.753V37.744h2.418Zm9.674-2.418V35.328H47.43V32.91a2.425,2.425,0,0,0-2.418-2.418H42.594V28.074H40.176v2.418H37.755V28.074H35.338v2.418H32.92A2.425,2.425,0,0,0,30.5,32.91v2.418H28.084v2.417H30.5v2.418H28.084v2.418H30.5V45A2.425,2.425,0,0,0,32.92,47.42h2.425v2.418h2.417V47.42H40.18v2.418H42.6V47.42h2.409A2.425,2.425,0,0,0,47.425,45V42.582h2.418V40.163H47.425V37.743ZM45.011,45H32.92V32.913H45.011Z" transform="translate(-2.353 -2.352)" fill="#083ecb"/>
      <path id="Path_6042" data-name="Path 6042" d="M42.591,16.441H35.335V23.7h7.257ZM40.173,21.28H37.753V18.859h2.418Zm9.674-2.418V16.443H47.43V14.025a2.427,2.427,0,0,0-2.418-2.418H42.594V9.189H40.176v2.418H37.755V9.189H35.338v2.418H32.92A2.427,2.427,0,0,0,30.5,14.025v2.418H28.084V18.86H30.5v2.418H28.084V23.7H30.5v2.421a2.425,2.425,0,0,0,2.418,2.418h2.425v2.418h2.417V28.535H40.18v2.418H42.6V28.535h2.409a2.425,2.425,0,0,0,2.418-2.418V23.7h2.418V21.272H47.425V18.851Zm-4.836,7.257H32.92V14.028H45.011Z" transform="translate(-2.353 -7.758)" fill="#083ecb"/>
    </g>
  </g>
</svg>
