<svg id="apilandscape_logo" xmlns="http://www.w3.org/2000/svg" xmlns:xlink="http://www.w3.org/1999/xlink" width="827.485" height="147.848" viewBox="0 0 827.485 147.848">
  <defs>
    <filter id="Path_14" x="320.64" y="74.431" width="33.686" height="53.857" filterUnits="userSpaceOnUse">
      <feOffset dy="3" input="SourceAlpha"/>
      <feGaussianBlur stdDeviation="3" result="blur"/>
      <feFlood flood-opacity="0.161"/>
      <feComposite operator="in" in2="blur"/>
      <feComposite in="SourceGraphic"/>
    </filter>
  </defs>
  <path id="Path_5" data-name="Path 5" d="M0,89.218c.337-1.665.626-3.341,1.018-4.994a35.483,35.483,0,0,1,67.585-4.3c.7,1.829.725,1.85-.7,3.07q-5.562,4.766-11.159,9.494a10.827,10.827,0,0,1-1.041.66,23.13,23.13,0,0,1-.437-2.511C54.76,81.924,47.274,74.177,38.4,72.854c-8.83-1.318-18.177,3.722-21.428,12.254-4.54,11.915,2.022,23.853,13.83,26.75a18.692,18.692,0,0,0,17.172-3.839c7.5-6.256,14.927-12.6,22.385-18.909q11.912-10.077,23.819-20.16c1.451-1.23,2.818-2.56,4.292-3.759a35.39,35.39,0,0,1,46.8,1.673c.276.261.554.522.844.767a3.228,3.228,0,0,0,.57.253l12.941-10.828c.079,1.03.157,1.571.156,2.113,0,5.387-.046,10.774-.011,16.16a3.161,3.161,0,0,1-1.268,2.788c-1,.774-1.908,1.672-2.892,2.472A1.815,1.815,0,0,0,155,82.776a32.472,32.472,0,0,1,1.366,10.306c-.263,11.36-4.847,20.58-13.856,27.5a35.31,35.31,0,0,1-18.552,7.2,34.349,34.349,0,0,1-21.14-4.8c-.382-.224-.769-.442-1.165-.641-.1-.048-.241-.007-.6-.007v1.995c0,6.781-.046,13.563.035,20.344a4.062,4.062,0,0,1-1.661,3.542c-4.025,3.292-7.969,6.684-11.935,10.048-.481.408-.906.88-1.356,1.323h-.763q0-26.323-.017-52.648a3.994,3.994,0,0,1,1.48-3.47c4.264-3.5,8.444-7.1,12.668-10.646a11.733,11.733,0,0,1,1.372-.842c.079.679.164,1.105.173,1.532a19.933,19.933,0,1,0,39.6-4.082,20.139,20.139,0,0,0-19.49-16.8,19.734,19.734,0,0,0-13.432,4.988c-2.941,2.511-5.869,5.037-8.821,7.536Q85.7,96.328,72.45,107.469a3.716,3.716,0,0,0-1.532,3.216c.074,5.13.041,10.263.021,15.395-.006,1.7-.187,1.9-1.835,1.917q-5.9.049-11.809,0c-1.631-.011-1.729-.133-1.756-1.733-.024-1.417,0-2.835,0-4.279a2.429,2.429,0,0,0-.427.071c-.222.122-.442.248-.656.381a34.772,34.772,0,0,1-24.949,4.97A35.427,35.427,0,0,1,1.024,101.067C.6,99.292.338,97.479,0,95.684V89.218" transform="translate(0 -11.731)" fill="#f69902"/>
  <path id="Path_6" data-name="Path 6" d="M833.327,159.6c-.031-.759-.087-1.518-.087-2.278-.014-16.732,0-33.465-.064-50.2a4.533,4.533,0,0,1,1.846-4.024c3.866-3.086,7.573-6.368,11.351-9.563.61-.516,1.263-.981,2.077-1.611.2,1.477.363,2.648.523,3.819a19.771,19.771,0,0,0,20.261,16.676c8.127-.376,14.076-4.24,17.437-11.508,3.464-7.491,2.475-14.719-2.835-21.152a19.047,19.047,0,0,0-15.549-7.1,19.531,19.531,0,0,0-12.849,4.987c-6.146,5.3-12.375,10.514-18.571,15.76-5.809,4.918-11.608,9.849-17.45,14.728a2.445,2.445,0,0,0-.846,2.164q.019,7.415.006,14.831c0,.444.015.888,0,1.331-.059,1.369-.172,1.523-1.551,1.555-1.9.044-3.811.014-5.717.015-1.968,0-3.937.007-5.907,0-2.242-.011-2.258-.031-2.27-2.194-.007-1.186,0-2.373,0-3.839-.922.5-1.582.842-2.22,1.216A33.56,33.56,0,0,1,782.167,128c-16.45-.736-30.3-11.949-33.673-27.787a35.32,35.32,0,0,1,27.628-42.278c11.527-2.285,21.757.626,30.629,8.263a34.322,34.322,0,0,1,9.75,14.3,1.759,1.759,0,0,1-.553,2.309c-3.812,3.155-7.575,6.365-11.368,9.543a10.791,10.791,0,0,1-1.229.756c-.212-1.482-.377-2.776-.585-4.062-1.345-8.336-8.641-14.978-16.784-16.183-10.24-1.516-21.184,5.6-22.609,17.135-1.4,11.322,5.8,19.67,15.209,21.907,6.736,1.6,12.767-.037,18.07-4.588,8.95-7.685,18.008-15.246,27-22.886,7.394-6.285,14.729-12.642,22.141-18.907a34.2,34.2,0,0,1,17.648-7.925c11.5-1.6,21.426,1.785,29.93,9.566.271.248.584.451,1,.768L907.14,57.218a14.483,14.483,0,0,1,.237,1.691c.013,5.578-.01,11.156.025,16.733a2.62,2.62,0,0,1-1.018,2.3c-1.047.821-2.013,1.744-3.041,2.591a1.692,1.692,0,0,0-.682,2.122,28.616,28.616,0,0,1,1.478,9.719,34.419,34.419,0,0,1-8.4,23.064,35.722,35.722,0,0,1-22.22,12.184,34.179,34.179,0,0,1-22.212-4.161c-.666-.37-1.313-.773-1.975-1.149a3.591,3.591,0,0,0-.671-.143V124.2c0,6.972-.029,13.945.025,20.916a3.566,3.566,0,0,1-1.477,3.057c-4.54,3.763-9.008,7.611-13.5,11.428h-.38" transform="translate(-153.729 -11.755)" fill="#083ecb"/>
  <path id="Path_7" data-name="Path 7" d="M408.623,63.509a36.107,36.107,0,0,1,13.431-5.591,34.458,34.458,0,0,1,28.666,6.939,34.97,34.97,0,0,1,13.142,22.23A13.227,13.227,0,0,1,464,89.359q.013,18.255,0,36.51c0,.564-.049,1.127-.086,1.9a13.6,13.6,0,0,1-1.818.254q-5.813.033-11.624.006c-1.829-.01-1.915-.1-1.916-1.969-.009-11.346-.054-22.692.016-34.038a18.507,18.507,0,0,0-6.068-13.851,19.142,19.142,0,0,0-13.618-5.485,19.97,19.97,0,0,0-13.409,5.09c-5.773,4.961-11.594,9.866-17.4,14.785q-8.931,7.564-17.891,15.1a3.439,3.439,0,0,0-1.319,2.952c.054,5.07.031,10.141.018,15.212-.006,2.142-.13,2.261-2.262,2.267q-5.716.017-11.434,0c-1.864-.008-1.946-.1-1.973-1.918-.018-1.26,0-2.52,0-4.013-.645.328-1.089.521-1.5.767a34.353,34.353,0,0,1-19.033,5.145c-17.169-.562-31.983-12.956-34.447-30.274a35.506,35.506,0,0,1,27.015-39.629c17.145-4.043,35.195,5.484,41.168,21.754.735,2,.746,2.015-.833,3.359q-5.216,4.442-10.456,8.855c-.422.355-.9.64-1.538,1.087a6.972,6.972,0,0,1-.36-1.389c-.173-9.47-7.6-16.938-15.67-18.662A20.127,20.127,0,0,0,323.636,89.4a19.777,19.777,0,0,0,16.142,22.785,18.925,18.925,0,0,0,16.385-4.3c5.558-4.724,11.145-9.415,16.712-14.13,6.2-5.248,12.358-10.536,18.6-15.731a3.911,3.911,0,0,0,1.5-3.422c-.068-5.006-.03-10.013-.025-15.02,0-2.359.011-2.366,2.278-2.37q5.717-.011,11.435,0c1.859.007,1.93.087,1.959,1.928.021,1.308,0,2.617,0,4.365" transform="translate(-63.301 -11.762)" fill="#083ecb"/>
  <path id="Path_8" data-name="Path 8" d="M567.114,54.882V49.337c0-5.765.033-11.531-.024-17.3a3.844,3.844,0,0,1,1.536-3.407c4.194-3.382,8.274-6.9,12.407-10.364.373-.311.807-.548,1.5-1.012.106.994.245,1.71.247,2.425q.025,10.358.01,20.717,0,37.728,0,75.456c0,4.169.12,3.617-3.747,3.64q-5.048.031-10.1,0c-1.7-.011-1.8-.139-1.833-1.863-.021-1.188,0-2.375,0-3.946-10.348,6.341-21.008,7.782-32.159,3.794A34.455,34.455,0,0,1,517.2,103.192,35.314,35.314,0,0,1,521.1,60.274c10.306-11.065,28.985-16.191,46.018-5.392m-.466,25.247A19.652,19.652,0,0,0,545.2,64.476a19.947,19.947,0,0,0-17.682,23.173c2.5,14.471,20.474,21.992,32.251,13.179,2.535-1.9,7.35-6.91,7.35-8.574-.037-1.584-.008-9.721-.474-12.125" transform="translate(-105.208 -3.549)" fill="#083ecb"/>
  <path id="Path_9" data-name="Path 9" d="M1018.768,112.868a28.693,28.693,0,0,1-5.194,6.085c-5.672,5.114-12.409,7.667-19.965,8.44a41.028,41.028,0,0,1-16.021-1.172c-13.011-3.864-21.118-12.5-23.987-25.711a36.014,36.014,0,0,1,3-24.6C961.682,66,969.719,59.67,980.777,57.759c9.684-1.675,19.005-.367,27.369,5.187,8.235,5.469,12.869,13.321,14.488,22.945a71.949,71.949,0,0,1,.715,9.442c.074,2.166-.118,2.247-2.274,2.25q-10.479.014-20.956,0-14,0-28.006,0c-.741,0-1.483.068-2.373.112a12.446,12.446,0,0,0,1.746,5.525,17.2,17.2,0,0,0,14.105,9.085c6.761.656,12.85-.988,17.978-5.6a1.622,1.622,0,0,1,2.038-.348c4.23,2.034,8.481,4.024,12.721,6.035.1.05.172.178.439.465m-13.15-29.212c-.949-5.809-8.257-11.369-15.31-11.829-9.336-.611-16.746,3.68-19.618,11.829Z" transform="translate(-195.876 -11.736)" fill="#083ecb"/>
  <path id="Path_10" data-name="Path 10" d="M264.42,0c.415,4.057.215,29.9.215,33.576V100.5c.894.072,1.622.182,2.351.183,7.749.013,15.5.043,23.245-.021a3.128,3.128,0,0,1,3.29,1.881,38.375,38.375,0,0,0,10.258,12.344,8.508,8.508,0,0,0,1.306.721l-.393.623c-.6.034-1.192.1-1.789.1q-25.72-.019-51.442-.052a3.129,3.129,0,0,1-1.315-.069,2.278,2.278,0,0,1-1.059-1.088,5.059,5.059,0,0,1-.073-1.7q0-49.051-.033-98.1a4.612,4.612,0,0,1,1.89-4.023c3.853-3.1,7.564-6.377,11.339-9.574.607-.515,1.254-.983,2.21-1.727" transform="translate(-51.191)" fill="#083ecb"/>
  <path id="Path_11" data-name="Path 11" d="M611.759,127.864V112.575c.683-.064,1.292-.17,1.9-.169,3.936,0,7.874,0,11.81.058,2.471.034,4.939.191,7.41.24a6.956,6.956,0,0,0,4.754-1.637q3.346-2.824,1.992-7.412a6.542,6.542,0,0,0-6.234-4.455c-5.983-.141-11.245-2.122-15.331-6.521-5.577-6-7.393-13.107-4.83-20.928,2.552-7.787,8.083-12.536,16.182-14.17a17.349,17.349,0,0,1,3.4-.351q19.145-.036,38.291-.012c.563,0,1.125.051,2,.094a7.176,7.176,0,0,1-.954,1.068,41.1,41.1,0,0,0-11.527,12.238,2.553,2.553,0,0,1-2.513,1.27q-11.43-.046-22.86-.006c-.945,0-1.889.16-2.834.243a5.733,5.733,0,0,0-4.93,6,5.868,5.868,0,0,0,5.921,5.315,21.351,21.351,0,0,1,10.387,2.68,22.248,22.248,0,0,1-6.494,41.49,22.324,22.324,0,0,1-4.157.413c-6.413.043-12.827.024-19.241.011-.678,0-1.355-.1-2.138-.169" transform="translate(-125.781 -11.763)" fill="#083ecb"/>
  <path id="Path_12" data-name="Path 12" d="M732.905,64.848a45.916,45.916,0,0,0-7.678,13.42c-5.8-4.928-12.167-6.815-19.406-4.871a19.642,19.642,0,0,0-10.872,7.576c-5.268,7.11-4.886,17.846.852,24.343a20.158,20.158,0,0,0,14.25,7.093c5.768.388,10.674-1.608,15.172-5.526a47.081,47.081,0,0,0,7.6,13.289c-9.713,9.136-29.642,11.873-44.666-.675a35.323,35.323,0,0,1,44.751-54.65" transform="translate(-138.918 -11.758)" fill="#083ecb"/>
  <path id="Path_13" data-name="Path 13" d="M225.269,127.894c-.7.052-1.319.137-1.939.139q-5.43.019-10.859,0c-2.294-.007-2.379-.09-2.381-2.339q-.011-13.308,0-26.615V60.3c0-.507-.017-1.014.007-1.52.068-1.4.168-1.539,1.553-1.555,2.857-.035,5.715-.013,8.573-.014h4.841c.515,1.524.684,67.7.208,70.684" transform="translate(-43.193 -11.762)" fill="#f69902"/>
  <g transform="matrix(1, 0, 0, 1, 0, 0)" filter="url(#Path_14)">
    <path id="Path_14-2" data-name="Path 14" d="M430.641,101.248v33.215c0,.253.006.508,0,.76-.061,1.635-.241,1.851-1.9,1.862q-5.9.038-11.809,0c-1.78-.013-1.951-.192-1.955-1.992-.015-6.526,0-13.051-.013-19.576a2.527,2.527,0,0,1,.921-2.158c4.572-3.823,9.109-7.689,13.664-11.532a8.478,8.478,0,0,1,1.1-.58" transform="translate(-85.32 -20.82)" fill="#083ecb"/>
  </g>
  <path id="Path_15" data-name="Path 15" d="M206.645,29.731a10.416,10.416,0,0,1,10.6-10.573c6.761.247,10.343,5.179,10.5,10.569a10.664,10.664,0,0,1-10.5,10.6c-6.868-.032-10.979-5.937-10.6-10.595" transform="translate(-42.482 -3.938)" fill="#f69902"/>
</svg>
