<svg id="founded_icon" xmlns="http://www.w3.org/2000/svg" width="42" height="42" viewBox="0 0 42 42">
  <g id="Ellipse_5" data-name="Ellipse 5" fill="#f5f9ff" stroke="#083ecb" stroke-width="2">
    <circle cx="21" cy="21" r="21" stroke="none"/>
    <circle cx="21" cy="21" r="20" fill="none"/>
  </g>
  <path id="Path_20" data-name="Path 20" d="M18.261,14.173c-.137-.072-.21-.1-.277-.146a5.8,5.8,0,0,0-4.974-.644c-1.152.337-2.272.77-3.4,1.171a14.321,14.321,0,0,1-2.9.764,5.65,5.65,0,0,1-3.645-.765l-.494-.281v7.738c-.869.022-1.681.015-2.538,0C.017,21.793,0,21.618,0,21.442V.945C0,.3.207.04.856,0A5.134,5.134,0,0,1,2.12.119.518.518,0,0,1,2.561.7a.218.218,0,0,1-.007.04c-.072.421.165.622.486.814a5.6,5.6,0,0,0,4.469.632c1.206-.319,2.376-.767,3.555-1.178A13.248,13.248,0,0,1,14.495.148a5.634,5.634,0,0,1,3.517.906.589.589,0,0,1,.254.589q0,2.3,0,4.6v7.938Z" transform="translate(13.826 11.987)" fill="#083ecb" stroke="#e6efff" stroke-width="1"/>
</svg>
