<svg xmlns="http://www.w3.org/2000/svg" width="44" height="44" viewBox="0 0 44 44">
  <g id="github_icon" transform="translate(1 1)">
    <g id="Group_5360" data-name="Group 5360">
      <g id="Group_5359" data-name="Group 5359" transform="translate(0)">
        <path id="Path_2478" data-name="Path 2478" d="M108.376,49.565a21,21,0,1,1-21-21,21,21,0,0,1,21,21" transform="translate(-66.376 -28.565)" fill="#fff" stroke="#083ecb" stroke-width="2"/>
      </g>
    </g>
    <path id="Path_5810" data-name="Path 5810" d="M27.134,40.351h-.486a1.251,1.251,0,0,1-.759-1.319c0-2.112,0-4.225-.064-6.336a4.077,4.077,0,0,0-.99-2.551c-.091-.108-.187-.212-.3-.345.106-.018.157-.029.209-.036a14.047,14.047,0,0,0,4.285-1.111,7.617,7.617,0,0,0,3.569-3.1,11.286,11.286,0,0,0,1.3-4.5A8.524,8.524,0,0,0,32,14.232a.46.46,0,0,1-.088-.38,6.984,6.984,0,0,0,.011-4.4c-.292-.992-.459-1.1-1.474-.9-.026.005-.052.014-.078.021a13.774,13.774,0,0,0-4.056,1.866.952.952,0,0,1-.827.143A19.183,19.183,0,0,0,16,10.578a1.055,1.055,0,0,1-.831-.121c-.995-.534-2-1.051-3.025-1.523a3.731,3.731,0,0,0-2.035-.407.462.462,0,0,0-.33.207A7.089,7.089,0,0,0,9.526,13.7a.56.56,0,0,1-.128.639,7.443,7.443,0,0,0-1.657,3.234,11.289,11.289,0,0,0-.115,3.971A9.857,9.857,0,0,0,9.162,26a8.533,8.533,0,0,0,5.3,3.359c.789.2,1.6.307,2.456.467A4.559,4.559,0,0,0,15.656,32.4a.311.311,0,0,1-.155.206,5.117,5.117,0,0,1-3.665.279,4,4,0,0,1-2.129-1.9,4.758,4.758,0,0,0-2.029-1.912,2.606,2.606,0,0,0-1.835-.3c-.368.093-.442.249-.214.537a6.328,6.328,0,0,0,.72.693,7.092,7.092,0,0,1,1.114,1.032A12.1,12.1,0,0,1,8.62,33.114a3.808,3.808,0,0,0,2.784,2.3,9.708,9.708,0,0,0,3.46.16c.222-.029.443-.067.744-.114,0,1.218-.016,2.386.006,3.554a1.246,1.246,0,0,1-.792,1.342h-.486A20.653,20.653,0,0,1,.329,24.33c-.157-.841-.221-1.7-.329-2.55V19.357c.06-.5.112-1.009.182-1.512a20.311,20.311,0,0,1,2.477-7.326,20.694,20.694,0,0,1,9.1-8.5A20.231,20.231,0,0,1,20.636,0a20.094,20.094,0,0,1,8.2,1.618A20.682,20.682,0,0,1,41.2,24.084a19.191,19.191,0,0,1-2.629,7.144,21.185,21.185,0,0,1-5.952,6.407,21.96,21.96,0,0,1-5.48,2.715" transform="translate(0.384)" fill="#083ecb"/>
  </g>
</svg>
