<svg id="headquarter_icon" xmlns="http://www.w3.org/2000/svg" width="42" height="42" viewBox="0 0 42 42">
  <g id="Path_6239" data-name="Path 6239" fill="#f5f9ff">
    <path d="M 21 41 C 18.29957962036133 41 15.68045997619629 40.47134017944336 13.21539974212646 39.4287109375 C 10.83393955230713 38.42144012451172 8.694950103759766 36.97922134399414 6.857860088348389 35.14213943481445 C 5.020780086517334 33.30504989624023 3.57856011390686 31.16605949401855 2.571290016174316 28.78459930419922 C 1.52866005897522 26.31954002380371 1 23.70042037963867 1 21 C 1 18.29957962036133 1.52866005897522 15.68045997619629 2.571290016174316 13.21539974212646 C 3.57856011390686 10.83393955230713 5.020780086517334 8.694950103759766 6.857860088348389 6.857860088348389 C 8.694950103759766 5.020780086517334 10.83393955230713 3.57856011390686 13.21539974212646 2.571290016174316 C 15.68045997619629 1.52866005897522 18.29957962036133 1 21 1 C 23.70042037963867 1 26.31954002380371 1.52866005897522 28.78459930419922 2.571290016174316 C 31.16605949401855 3.57856011390686 33.30504989624023 5.020780086517334 35.14213943481445 6.857860088348389 C 36.97922134399414 8.694950103759766 38.42144012451172 10.83393955230713 39.4287109375 13.21539974212646 C 40.47134017944336 15.68045997619629 41 18.29957962036133 41 21 C 41 23.70042037963867 40.47134017944336 26.31954002380371 39.4287109375 28.78459930419922 C 38.42144012451172 31.16605949401855 36.97922134399414 33.30504989624023 35.14213943481445 35.14213943481445 C 33.30504989624023 36.97922134399414 31.16605949401855 38.42144012451172 28.78459930419922 39.4287109375 C 26.31954002380371 40.47134017944336 23.70042037963867 41 21 41 Z" stroke="none"/>
    <path d="M 21 2 C 15.92491912841797 2 11.15360069274902 3.976341247558594 7.564968109130859 7.564968109130859 C 3.976341247558594 11.15360069274902 2 15.92491912841797 2 21 C 2 26.07508087158203 3.976341247558594 30.84640121459961 7.564968109130859 34.43502807617188 C 11.15360069274902 38.02365875244141 15.92491912841797 40 21 40 C 26.07508087158203 40 30.84640121459961 38.02365875244141 34.43502807617188 34.43502807617188 C 38.02365875244141 30.84640121459961 40 26.07508087158203 40 21 C 40 15.92491912841797 38.02365875244141 11.15360069274902 34.43502807617188 7.564968109130859 C 30.84640121459961 3.976341247558594 26.07508087158203 2 21 2 M 21 0 C 32.59798049926758 0 42 9.402019500732422 42 21 C 42 32.59798049926758 32.59798049926758 42 21 42 C 9.402019500732422 42 0 32.59798049926758 0 21 C 0 9.402019500732422 9.402019500732422 0 21 0 Z" stroke="none" fill="#1b4965"/>
  </g>
  <g id="Group_3859" data-name="Group 3859" transform="translate(12 11)">
    <g id="Group_3860" data-name="Group 3860">
      <path id="Path_23" data-name="Path 23" d="M8.656,0A8.6,8.6,0,0,0,0,8.546v.11a8.31,8.31,0,0,0,2.6,6.182c.124.124,5.069,4.575,5.193,4.7a1.3,1.3,0,0,0,1.607,0c.124-.124,5.193-4.575,5.193-4.7a8.31,8.31,0,0,0,2.6-6.182A8.424,8.424,0,0,0,9.007,0c-.117,0-.234,0-.351,0m0,11.128a2.473,2.473,0,1,1,2.473-2.473,2.473,2.473,0,0,1-2.473,2.473" fill="#1b4965"/>
    </g>
  </g>
</svg>
