<svg id="headcount_icon" xmlns="http://www.w3.org/2000/svg" xmlns:xlink="http://www.w3.org/1999/xlink" width="60" height="60" viewBox="0 0 60 60">
  <defs>
    <clipPath id="clip-path">
      <rect id="Rectangle_137" data-name="Rectangle 137" width="48.013" height="41.012" fill="none"/>
    </clipPath>
  </defs>
  <rect id="Rectangle_139" data-name="Rectangle 139" width="60" height="60" fill="#fff"/>
  <g id="Group_3874" data-name="Group 3874" transform="translate(8.072 17.209)">
    <g id="Group_3873" data-name="Group 3873" transform="translate(-2.078 -1.27)" clip-path="url(#clip-path)">
      <path id="Path_32" data-name="Path 32" d="M37.319,39.936a8.605,8.605,0,0,0-2.971-7.573,7.615,7.615,0,0,0-5.354-1.915A7.82,7.82,0,0,0,23,33.373a8.584,8.584,0,0,0-1.968,6.533c-.025.017-.038.035-.052.035-.591,0-1.183.029-1.773,0a.976.976,0,0,1-.89-1.048V28.236a7.1,7.1,0,0,1,5.044-6.849,6.648,6.648,0,0,1,1.851-.252c1.971.007,3.943.005,5.915.007.8,0,1.6-.04,2.39.011a6.674,6.674,0,0,1,5.558,3.492,6.9,6.9,0,0,1,.954,3.58q0,5.31.006,10.621a1.049,1.049,0,0,1-.98,1.11c-.027,0-.054,0-.08,0-.475-.025-.953,0-1.429,0-.071,0-.143-.01-.229-.017" transform="translate(-5.161 -5.371)" fill="#083ecb"/>
      <path id="Path_33" data-name="Path 33" d="M13.217,25.2c-.093.193-.162.336-.231.48A7.566,7.566,0,0,0,12.2,28.8c-.033,1.611-.027,3.222-.031,4.834,0,1.859,0,3.718,0,5.578a3.447,3.447,0,0,0,.263,1.747c-.118.007-.2.016-.276.016H1.166a1.109,1.109,0,0,1-.747-.2,1,1,0,0,1-.4-.707Q0,39.831,0,39.588V33.167c0-.409.022-.82.027-1.225s-.01-.814.011-1.22a5.757,5.757,0,0,1,1.044-3.014,5.754,5.754,0,0,1,3.9-2.494,5.037,5.037,0,0,1,.834-.059q3.314-.007,6.628,0c.244,0,.489.031.777.049" transform="translate(0 -6.395)" fill="#083ecb"/>
      <path id="Path_34" data-name="Path 34" d="M49.3,40.969c.068-.3.136-.565.19-.838a1.85,1.85,0,0,0,.022-.356V29.408a8.433,8.433,0,0,0-.966-4.027c-.023-.043-.04-.09-.075-.175.215-.022.4-.057.6-.057,2.333,0,4.668-.049,7,.011a5.514,5.514,0,0,1,4.6,2.647,5.984,5.984,0,0,1,1,3.419q-.012,4.312,0,8.623a1.041,1.041,0,0,1-.753,1.087,1.807,1.807,0,0,1-.416.028H50.224Z" transform="translate(-13.659 -6.389)" fill="#083ecb"/>
      <path id="Path_35" data-name="Path 35" d="M30.576,15.1a7.387,7.387,0,0,1-7.269-7.5A7.409,7.409,0,0,1,30.5,0h.021a7.408,7.408,0,0,1,7.336,7.481v.057A7.434,7.434,0,0,1,30.576,15.1" transform="translate(-6.568 0)" fill="#083ecb"/>
      <path id="Path_36" data-name="Path 36" d="M23.425,42.445A7.187,7.187,0,1,1,30.6,49.909h-.12a7.338,7.338,0,0,1-7.056-7.463m8.313-1.155V39.416a1.13,1.13,0,1,0-2.256-.1c0,.028,0,.056,0,.084-.008.538,0,1.075,0,1.612,0,.082-.008.164-.013.274h-.287c-.518,0-1.036-.008-1.553,0a1.122,1.122,0,0,0-1.115,1.128c0,.025,0,.048,0,.073a1.138,1.138,0,0,0,1.15,1.128h.015c.518,0,1.035,0,1.553,0h.249v1.91A1.146,1.146,0,0,0,30.592,46.7a1.089,1.089,0,0,0,.549-.142,1.108,1.108,0,0,0,.588-1c.013-.554,0-1.109,0-1.664,0-.089.009-.179.014-.286h1.775a1.366,1.366,0,0,0,.364-.045,1.168,1.168,0,0,0-.265-2.28c-.526.005-1.051,0-1.58,0Z" transform="translate(-6.601 -8.897)" fill="#b273fc"/>
      <path id="Path_37" data-name="Path 37" d="M51.593,7.371a6.231,6.231,0,0,1,6.325,6.052,6.272,6.272,0,0,1-5.756,6.71l-.046,0a6.212,6.212,0,0,1-6.476-5.973c0-.04,0-.081-.006-.121a6.286,6.286,0,0,1,5.843-6.666l.117,0" transform="translate(-12.857 -1.873)" fill="#083ecb"/>
      <path id="Path_38" data-name="Path 38" d="M10.225,20.144A6.271,6.271,0,0,1,4.1,13.733c0-.04,0-.081,0-.122a6.241,6.241,0,0,1,6.233-6.236A6.252,6.252,0,0,1,16.408,13.8v.032a6.261,6.261,0,0,1-6.183,6.316" transform="translate(-1.157 -1.875)" fill="#083ecb"/>
    </g>
  </g>
</svg>
