<svg id="linkedin_icon" xmlns="http://www.w3.org/2000/svg" width="42" height="42" viewBox="0 0 42 42">
  <g id="Group_5364" data-name="Group 5364">
    <path id="Path_6081" data-name="Path 6081" d="M21,0A21,21,0,1,1,0,21,21,21,0,0,1,21,0Z" transform="translate(0 0)" fill="#083ecb"/>
    <g id="Group_4804" data-name="Group 4804" transform="translate(6.359 5.599)">
      <rect id="Rectangle_3240" data-name="Rectangle 3240" width="22.414" height="24.106" transform="translate(2.684 2.363)" fill="#f5f9ff"/>
      <g id="Group_5363" data-name="Group 5363" transform="translate(0 0)">
        <path id="Path_4874" data-name="Path 4874" d="M23.361,0H6.148A6.249,6.249,0,0,0,0,6.343V24.1a6.249,6.249,0,0,0,6.148,6.343H23.361A6.248,6.248,0,0,0,29.509,24.1V6.343A6.248,6.248,0,0,0,23.361,0M9.836,24.1H6.148V10.149H9.836ZM7.993,8.541A2.2,2.2,0,0,1,5.84,6.3,2.2,2.2,0,0,1,7.993,4.065,2.2,2.2,0,0,1,10.144,6.3a2.2,2.2,0,0,1-2.15,2.238M24.591,24.1H20.9V17c0-4.273-4.918-3.949-4.918,0V24.1H12.3V10.149h3.689v2.239c1.716-3.281,8.607-3.523,8.607,3.141Z" transform="translate(0 0)" fill="#083ecb"/>
      </g>
    </g>
  </g>
</svg>
