<svg id="logo_top" data-name="logo top" xmlns="http://www.w3.org/2000/svg" xmlns:xlink="http://www.w3.org/1999/xlink" width="313.425" height="56.046" viewBox="0 0 313.425 56.046">
  <defs>
    <filter id="Path_14" x="115.857" y="24.465" width="23.941" height="31.581" filterUnits="userSpaceOnUse">
      <feOffset dy="3" input="SourceAlpha"/>
      <feGaussianBlur stdDeviation="3" result="blur"/>
      <feFlood flood-opacity="0.161"/>
      <feComposite operator="in" in2="blur"/>
      <feComposite in="SourceGraphic"/>
    </filter>
  </defs>
  <path id="Path_5" data-name="Path 5" d="M0,69.239c.128-.631.237-1.266.385-1.891a13.44,13.44,0,0,1,25.6-1.63c.266.693.275.7-.264,1.163q-2.107,1.805-4.227,3.6a4.1,4.1,0,0,1-.394.25,8.76,8.76,0,0,1-.165-.951,7.542,7.542,0,0,0-14.5-2.093,7.46,7.46,0,0,0,5.238,10.132,7.08,7.08,0,0,0,6.5-1.454c2.841-2.37,5.654-4.773,8.479-7.162q4.512-3.817,9.022-7.636c.549-.466,1.067-.97,1.626-1.424a13.4,13.4,0,0,1,17.728.634c.1.1.21.2.32.291a1.223,1.223,0,0,0,.216.1l4.9-4.1c.03.39.059.6.059.8,0,2.04-.017,4.081,0,6.121a1.2,1.2,0,0,1-.48,1.056c-.38.293-.723.633-1.1.936a.687.687,0,0,0-.232.827,12.3,12.3,0,0,1,.518,3.9A12.906,12.906,0,0,1,53.98,81.12a13.374,13.374,0,0,1-7.027,2.725,13.01,13.01,0,0,1-8.007-1.82c-.145-.085-.291-.168-.441-.243-.037-.018-.091,0-.227,0v.756c0,2.568-.017,5.137.013,7.705a1.539,1.539,0,0,1-.629,1.342c-1.525,1.247-3.019,2.532-4.521,3.806-.182.154-.343.333-.514.5h-.289q0-9.97-.007-19.941a1.513,1.513,0,0,1,.561-1.314c1.615-1.325,3.2-2.688,4.8-4.032a4.443,4.443,0,0,1,.52-.319c.03.257.062.419.066.58a7.55,7.55,0,1,0,15-1.546,7.628,7.628,0,0,0-7.382-6.364,7.475,7.475,0,0,0-5.088,1.889c-1.114.951-2.223,1.908-3.341,2.854q-5,4.236-10.022,8.456a1.408,1.408,0,0,0-.58,1.218c.028,1.943.015,3.887.008,5.831,0,.645-.071.721-.7.726q-2.236.019-4.473,0c-.618,0-.655-.051-.665-.657-.009-.537,0-1.074,0-1.621a.921.921,0,0,0-.162.027c-.084.046-.167.094-.249.144a13.171,13.171,0,0,1-9.45,1.882A13.419,13.419,0,0,1,.388,73.727c-.16-.672-.26-1.359-.388-2.039V69.239" transform="translate(0 -39.89)" fill="#f69902"/>
  <path id="Path_6" data-name="Path 6" d="M780.126,95.97c-.012-.288-.033-.575-.033-.863-.005-6.338,0-12.676-.024-19.014a1.717,1.717,0,0,1,.7-1.524c1.464-1.169,2.868-2.412,4.3-3.622.231-.2.478-.372.787-.61.076.559.137,1,.2,1.446a7.489,7.489,0,0,0,7.674,6.316,7.533,7.533,0,0,0-.359-15.06,7.4,7.4,0,0,0-4.867,1.889c-2.328,2.009-4.687,3.982-7.034,5.969-2.2,1.863-4.4,3.73-6.609,5.579a.926.926,0,0,0-.32.82c0,1.872,0,3.745,0,5.618,0,.168.006.336,0,.5-.022.518-.065.577-.587.589-.721.017-1.444.005-2.165.006-.745,0-1.491,0-2.237,0-.849,0-.855-.012-.86-.831,0-.449,0-.9,0-1.454-.349.191-.6.319-.841.461a12.711,12.711,0,0,1-7.1,1.811,13.4,13.4,0,0,1-2.29-26.538,13.458,13.458,0,0,1,15.295,8.545.666.666,0,0,1-.209.874c-1.444,1.195-2.869,2.411-4.306,3.615a4.086,4.086,0,0,1-.466.286c-.08-.561-.143-1.051-.221-1.538a7.666,7.666,0,0,0-6.357-6.13,7.576,7.576,0,0,0-8.564,6.49,7.586,7.586,0,0,0,12.605,6.56c3.39-2.911,6.821-5.775,10.226-8.669,2.8-2.381,5.579-4.788,8.386-7.161a12.955,12.955,0,0,1,6.685-3,13.359,13.359,0,0,1,11.337,3.623c.1.094.221.171.379.291l4.836-4.055a5.487,5.487,0,0,1,.09.641c0,2.113,0,4.225.01,6.338a.993.993,0,0,1-.385.873c-.4.311-.762.66-1.152.981a.641.641,0,0,0-.258.8,10.838,10.838,0,0,1,.56,3.681,13.037,13.037,0,0,1-3.182,8.736,13.53,13.53,0,0,1-8.416,4.615,12.946,12.946,0,0,1-8.413-1.576c-.252-.14-.5-.293-.748-.435a1.362,1.362,0,0,0-.254-.054v.768c0,2.641-.011,5.282.009,7.922a1.351,1.351,0,0,1-.559,1.158c-1.72,1.425-3.412,2.883-5.115,4.329h-.144" transform="translate(-522.716 -39.97)" fill="#083ecb"/>
  <path id="Path_7" data-name="Path 7" d="M346.036,59.594a13.677,13.677,0,0,1,5.087-2.118A13.052,13.052,0,0,1,361.981,60.1a13.246,13.246,0,0,1,4.978,8.42,5.01,5.01,0,0,1,.054.861q.005,6.914,0,13.829c0,.214-.019.427-.032.721a5.154,5.154,0,0,1-.688.1q-2.2.013-4.4,0c-.693,0-.725-.039-.726-.746,0-4.3-.02-8.595.006-12.893a7.01,7.01,0,0,0-2.3-5.246,7.25,7.25,0,0,0-5.158-2.078A7.564,7.564,0,0,0,348.634,65c-2.187,1.879-4.392,3.737-6.591,5.6q-3.383,2.865-6.776,5.718a1.3,1.3,0,0,0-.5,1.118c.02,1.92.012,3.841.007,5.762,0,.812-.049.856-.857.859q-2.165.006-4.331,0c-.706,0-.737-.039-.747-.727-.007-.477,0-.954,0-1.52-.244.124-.413.2-.568.291a13.012,13.012,0,0,1-7.209,1.949A13.418,13.418,0,1,1,333.838,65.81c.278.758.283.763-.315,1.272q-1.975,1.683-3.96,3.354c-.16.134-.342.243-.582.412a2.645,2.645,0,0,1-.136-.526,7.553,7.553,0,0,0-15-.921,7.491,7.491,0,0,0,6.114,8.63,7.168,7.168,0,0,0,6.206-1.628c2.105-1.789,4.221-3.566,6.33-5.352,2.347-1.988,4.681-3.991,7.044-5.959a1.481,1.481,0,0,0,.568-1.3c-.026-1.9-.011-3.793-.009-5.689,0-.893,0-.9.863-.9q2.165,0,4.331,0c.7,0,.731.033.742.73.008.5,0,.991,0,1.653" transform="translate(-215.238 -39.993)" fill="#083ecb"/>
  <path id="Path_8" data-name="Path 8" d="M532.688,31.509v-2.1c0-2.184.013-4.367-.009-6.551a1.456,1.456,0,0,1,.582-1.291c1.589-1.281,3.134-2.615,4.7-3.926.141-.118.306-.208.568-.383.04.376.093.648.094.919q.009,3.923,0,7.847,0,14.29,0,28.58c0,1.579.045,1.37-1.419,1.379q-1.912.012-3.824,0c-.643,0-.683-.053-.694-.706-.008-.45,0-.9,0-1.495a13.523,13.523,0,0,1-12.181,1.437,13.05,13.05,0,0,1-6.724-5.412,13.376,13.376,0,0,1,1.475-16.256,13.6,13.6,0,0,1,17.43-2.042m-.177,9.563a7.444,7.444,0,0,0-8.122-5.929,7.555,7.555,0,0,0-6.7,8.777c.946,5.481,7.755,8.33,12.216,4.992.96-.718,2.784-2.617,2.784-3.248-.014-.6,0-3.682-.18-4.592" transform="translate(-357.732 -12.065)" fill="#083ecb"/>
  <path id="Path_9" data-name="Path 9" d="M977.711,78.21a10.867,10.867,0,0,1-1.967,2.3,12.873,12.873,0,0,1-7.562,3.2,15.54,15.54,0,0,1-6.068-.444,12.3,12.3,0,0,1-9.086-9.739,13.641,13.641,0,0,1,1.137-9.316,12.257,12.257,0,0,1,9.156-6.877A13.855,13.855,0,0,1,973.688,59.3a12.455,12.455,0,0,1,5.488,8.691,27.247,27.247,0,0,1,.271,3.576c.028.821-.045.851-.861.852q-3.969.005-7.937,0-5.3,0-10.608,0c-.281,0-.562.026-.9.042a4.715,4.715,0,0,0,.661,2.093A6.516,6.516,0,0,0,965.145,78a8.51,8.51,0,0,0,6.81-2.121.615.615,0,0,1,.772-.132c1.6.77,3.212,1.524,4.818,2.286.04.019.065.067.166.176M972.73,67.146c-.36-2.2-3.128-4.306-5.8-4.481-3.536-.231-6.343,1.394-7.431,4.481Z" transform="translate(-666.025 -39.905)" fill="#083ecb"/>
  <path id="Path_10" data-name="Path 10" d="M254.827,0c.157,1.537.082,11.325.082,12.717V38.066c.339.027.614.069.891.069,2.935,0,5.87.016,8.8-.008a1.185,1.185,0,0,1,1.246.713,14.535,14.535,0,0,0,3.885,4.676,3.224,3.224,0,0,0,.495.273l-.149.236c-.226.013-.452.038-.678.038q-9.742-.007-19.485-.02a1.185,1.185,0,0,1-.5-.026.863.863,0,0,1-.4-.412,1.916,1.916,0,0,1-.028-.642q0-18.579-.013-37.158A1.747,1.747,0,0,1,249.7,4.28c1.459-1.174,2.865-2.415,4.295-3.626.23-.195.475-.372.837-.654" transform="translate(-174.063)" fill="#083ecb"/>
  <path id="Path_11" data-name="Path 11" d="M611.759,83.972V78.181c.259-.024.49-.064.72-.064,1.491,0,2.982,0,4.473.022.936.013,1.871.072,2.807.091a2.635,2.635,0,0,0,1.8-.62,2.548,2.548,0,0,0-1.607-4.495,7.85,7.85,0,0,1-5.807-2.47,7.928,7.928,0,0,1,4.3-13.294,6.571,6.571,0,0,1,1.286-.133q7.252-.014,14.5,0c.213,0,.426.019.758.036a2.72,2.72,0,0,1-.361.4,15.567,15.567,0,0,0-4.366,4.635.967.967,0,0,1-.952.481q-4.329-.018-8.659,0c-.358,0-.716.06-1.073.092a2.172,2.172,0,0,0-1.867,2.272,2.223,2.223,0,0,0,2.243,2.013,8.087,8.087,0,0,1,3.934,1.015,8.427,8.427,0,0,1-2.46,15.715,8.456,8.456,0,0,1-1.575.156c-2.429.016-4.858.009-7.288,0-.257,0-.513-.04-.81-.064" transform="translate(-427.686 -39.996)" fill="#083ecb"/>
  <path id="Path_12" data-name="Path 12" d="M697.337,60.088a17.393,17.393,0,0,0-2.908,5.083,7.7,7.7,0,0,0-7.35-1.845,7.44,7.44,0,0,0-4.118,2.87,7.513,7.513,0,0,0,5.72,11.907,7.663,7.663,0,0,0,5.747-2.093,17.832,17.832,0,0,0,2.877,5.034c-3.679,3.461-11.227,4.5-16.918-.256a13.379,13.379,0,0,1,16.95-20.7" transform="translate(-472.354 -39.979)" fill="#083ecb"/>
  <path id="Path_13" data-name="Path 13" d="M215.833,83.979c-.265.02-.5.052-.734.053q-2.057.007-4.113,0c-.869,0-.9-.034-.9-.886q0-5.041,0-10.081V58.377c0-.192-.007-.384,0-.576.026-.529.063-.583.588-.589,1.082-.013,2.165,0,3.247-.005h1.834c.195.577.259,25.643.079,26.773" transform="translate(-146.869 -39.992)" fill="#f69902"/>
  <g transform="matrix(1, 0, 0, 1, 0, 0)" filter="url(#Path_14)">
    <path id="Path_14-2" data-name="Path 14" d="M420.9,101.248v12.581c0,.1,0,.192,0,.288-.023.619-.091.7-.721.705q-2.236.014-4.473,0c-.674,0-.739-.073-.74-.754-.006-2.472,0-4.943-.005-7.415a.957.957,0,0,1,.349-.817c1.732-1.448,3.45-2.912,5.175-4.368a3.213,3.213,0,0,1,.416-.22" transform="translate(-290.1 -70.78)" fill="#083ecb"/>
  </g>
  <path id="Path_15" data-name="Path 15" d="M206.63,23.158a4,4,0,1,1,7.993,0,4.039,4.039,0,0,1-3.976,4.015,3.957,3.957,0,0,1-4.017-4.013" transform="translate(-144.451 -13.389)" fill="#f69902"/>
</svg>
