<?xml version="1.0" encoding="UTF-8"?>
<svg xmlns="http://www.w3.org/2000/svg" version="1.1" viewBox="0 0 200 58">
  <defs>
    <style>
      .cls-1 {
        fill: #ff7c66;
      }

      .cls-2 {
        fill: #033d58;
      }
    </style>
  </defs>
  <!-- Generator: Adobe Illustrator 28.6.0, SVG Export Plug-In . SVG Version: 1.2.0 Build 709)  -->
  <g>
    <g id="Layer_1">
      <g>
        <circle class="cls-1" cx="195.5" cy="10.1" r="4.5"/>
        <path class="cls-2" d="M62.4,20.7c10.7,0,18.7,8,18.7,18.3s-8,18.3-18.7,18.3-18.7-8-18.7-18.3c0-10.3,8-18.3,18.7-18.3ZM62.4,50.6c6.6,0,11.4-5,11.4-11.5s-4.8-11.5-11.4-11.5-11.4,5-11.4,11.5,4.8,11.5,11.4,11.5Z"/>
        <path class="cls-2" d="M104.2,20.7c10.7,0,18.7,8,18.7,18.3s-8,18.3-18.7,18.3-18.7-8-18.7-18.3,8-18.3,18.7-18.3ZM104.2,50.6c6.6,0,11.4-5,11.4-11.5s-4.8-11.5-11.4-11.5-11.4,5-11.4,11.5,4.8,11.5,11.4,11.5Z"/>
        <path class="cls-2" d="M191.9,55.9V21.5c0-.4.4-.8.8-.8h5.7c.4,0,.8.4.8.8v34.4c0,.4-.4.8-.8.8h-5.7c-.4,0-.8-.4-.8-.8Z"/>
        <path class="cls-2" d="M170.6,20.7c-6.1,0-10.5,3.1-12.6,6.6-2.2-4.1-6.5-6.6-12.5-6.6s-9.5,3.4-10.7,5.2v-5.6c0-.6-.7-1-1.2-.7l-5.9,3.4c-.1,0-.2.2-.2.4v32.5c0,.4.4.8.8.8h5.7c.4,0,.8-.4.8-.8v-19.1c0-5.8,4.3-9.2,9.5-9.2s8.3,3.4,8.3,9.2v19.1c0,.4.4.8.8.8h5.7c.4,0,.8-.4.8-.8v-19.5c.2-5.5,4.4-8.8,9.5-8.8s8.3,3.4,8.3,9.2v19.1c0,.4.4.8.8.8h5.7c.4,0,.8-.4.8-.8v-20.6c0-8.5-5.1-14.6-14.4-14.6h0s0,0,0,0Z"/>
        <path class="cls-2" d="M20.2,20.7c-5.2,0-9.7,1.9-13,4.9V1.4c0-.6-.7-1-1.2-.7L.2,4.1c-.1,0-.2.2-.2.4v51.4c0,.4.4.8.8.8h5.7c.4,0,.8-.4.8-.8v-3.4c3.3,3.1,7.8,4.9,13,4.9,10.7,0,18.7-8,18.7-18.3s-8-18.3-18.7-18.3h0ZM20.2,50.6c-6.6,0-11.4-5-11.4-11.5s4.8-11.5,11.4-11.5,11.4,5,11.4,11.5-4.8,11.5-11.4,11.5Z"/>
      </g>
    </g>
  </g>
</svg>