<svg id="new_feature_icon" data-name="new feature_icon" xmlns="http://www.w3.org/2000/svg" width="60" height="60" viewBox="0 0 60 60">
  <g id="Group_5497" data-name="Group 5497" transform="translate(-1277 -4279)">
    <g id="Group_5499" data-name="Group 5499" transform="translate(3)">
      <g id="Group_5496" data-name="Group 5496" transform="translate(79 -72)">
        <g id="Group_5469" data-name="Group 5469" transform="translate(1196.542 4323.542)">
          <g id="Group_5470" data-name="Group 5470" transform="translate(22.758 30.538)">
            <path id="Path_6130" data-name="Path 6130" d="M40.38,71.607H33.137c-.2,0-.4.008-.6-.007-.96-.075-1.347-.516-1.323-1.481a16.759,16.759,0,0,0-.755-5.484,7.71,7.71,0,0,0-2.078-3.389,17.4,17.4,0,0,1-3.737-5.035A17.772,17.772,0,0,1,22.779,49,17.222,17.222,0,0,1,24.7,40.2a17.7,17.7,0,0,1,31.978.992,17.044,17.044,0,0,1,1.476,6.965A17.451,17.451,0,0,1,54.382,59.1a13.175,13.175,0,0,1-1.6,1.8,8.931,8.931,0,0,0-2.789,5.438c-.175,1.054-.213,2.129-.306,3.2-.019.222,0,.447,0,.671a1.275,1.275,0,0,1-1.139,1.4,1.3,1.3,0,0,1-.234,0c-.2.015-.4.008-.6.008H40.38" transform="translate(-22.758 -30.538)" fill="#98bdff"/>
            <path id="Path_6131" data-name="Path 6131" d="M48.722,122.942c-2.347,0-4.692.015-7.042-.006a2.64,2.64,0,0,1-2.554-1.911,2.733,2.733,0,0,1,1.86-3.389,2.7,2.7,0,0,1,.587-.1,4.931,4.931,0,0,1,.535-.016c4.449,0,8.9-.009,13.346.011a3.985,3.985,0,0,1,1.5.281,2.62,2.62,0,0,1,1.537,2.906,2.752,2.752,0,0,1-2.391,2.206c-.287.03-5.207.027-7.375.021" transform="translate(-31.14 -74.377)" fill="#98bdff" stroke="#1060ff" stroke-width="2"/>
            <path id="Path_6132" data-name="Path 6132" d="M50.984,136.221c-1.654,0-3.307.017-4.96,0a2.7,2.7,0,0,1-2.691-2.7,2.55,2.55,0,0,1,.013-.258,2.724,2.724,0,0,1,2.724-2.456c1.117-.027,2.235-.008,3.352-.008,2.145,0,4.29-.01,6.435,0a2.707,2.707,0,0,1,.222,5.41c-1.7.035-3.4.008-5.094.008Z" transform="translate(-33.365 -81.223)" fill="#98bdff" stroke="#1060ff" stroke-width="2"/>
          </g>
        </g>
        <g id="Ellipse_653" data-name="Ellipse 653" transform="translate(1199 4352)" fill="#fff" stroke="#1060ff" stroke-width="3">
          <circle cx="19" cy="19" r="19" stroke="none"/>
          <circle cx="19" cy="19" r="17.5" fill="none"/>
        </g>
        <path id="Path_6133" data-name="Path 6133" d="M10.711,0,7.4,6.706,0,7.782,5.356,13,4.092,20.373l6.62-3.48,6.62,3.48L16.067,13l5.355-5.22-7.4-1.075Z" transform="translate(1207.1 4359.71)" fill="#1060ff"/>
      </g>
      <rect id="Rectangle_3270" data-name="Rectangle 3270" width="60" height="60" transform="translate(1274 4279)" fill="none"/>
    </g>
  </g>
</svg>
