<svg id="report_a_bug_icon" data-name="report a bug_icon" xmlns="http://www.w3.org/2000/svg" xmlns:xlink="http://www.w3.org/1999/xlink" width="67.598" height="60" viewBox="0 0 67.598 60">
  <defs>
    <clipPath id="clip-path">
      <rect id="Rectangle_3261" data-name="Rectangle 3261" width="55.197" height="50.499" fill="#98bdff"/>
    </clipPath>
  </defs>
  <g id="Group_5495" data-name="Group 5495" transform="translate(-920 -4277.924)">
    <g id="Group_5466" data-name="Group 5466" transform="translate(932.401 4283.924)">
      <g id="Group_5465" data-name="Group 5465" clip-path="url(#clip-path)">
        <path id="Path_6126" data-name="Path 6126" d="M55.2,53.371a6.75,6.75,0,0,1-.37.762,2.212,2.212,0,0,1-2.035.978c-2.787-.008-5.574.008-8.36-.013-.507,0-.757.088-.851.659a25.265,25.265,0,0,1-.647,2.447c.291.115.6.234.913.36,5.059,2.047,8.224,5.64,9.04,11.126a17.1,17.1,0,0,1,.147,2.256A2.052,2.052,0,0,1,50.961,74.2a2.082,2.082,0,0,1-2.115-2.172,11.858,11.858,0,0,0-.758-4.162A9.63,9.63,0,0,0,42.4,62.525c-.41-.168-.834-.3-1.263-.457a20.071,20.071,0,0,1-11.4,9.3v-.68q0-7.631,0-15.261a9.128,9.128,0,0,0-.54-3.547c-.31-.746-.695-1.519-1.63-1.507-.9.012-1.281.767-1.584,1.5a9.266,9.266,0,0,0-.544,3.6q-.011,7.577,0,15.154v.817c-1.13-.482-2.205-.863-3.207-1.383a20.56,20.56,0,0,1-7.973-7.613c-.087-.139-.343-.31-.457-.273-2.894.934-5.286,2.5-6.587,5.383a10.978,10.978,0,0,0-.882,4.4A2.094,2.094,0,0,1,5.146,73.98a2.035,2.035,0,0,1-3-1.866,18.038,18.038,0,0,1,.391-3.736c1.1-4.879,4.242-7.975,8.769-9.812.3-.121.6-.229.9-.345-.248-.978-.472-1.933-.752-2.871-.037-.125-.366-.23-.56-.231q-4.288-.022-8.576-.007A2.1,2.1,0,0,1,.266,54a2.092,2.092,0,0,1,2.041-3.088c2.679-.019,5.358-.005,8.036-.005h.716c0-1.224.008-2.4-.012-3.583,0-.125-.15-.277-.269-.365C6.915,44.1,5.118,40.1,4.51,35.474c-.149-1.137-.209-2.289-.252-3.436a2.076,2.076,0,0,1,2.881-2.174,2.158,2.158,0,0,1,1.323,2.207,20.108,20.108,0,0,0,.657,5.116,11.19,11.19,0,0,0,3.4,5.754,4.685,4.685,0,0,0,1.273.779c1.943.789,3.869,1.646,5.865,2.275a27.187,27.187,0,0,0,9.379,1.054,31.158,31.158,0,0,0,11.6-2.782,9.216,9.216,0,0,0,4.441-4.528A17.361,17.361,0,0,0,46.7,32.491a4.8,4.8,0,0,1,.335-1.713,2.04,2.04,0,0,1,3.836.789c.077,5.108-.978,9.856-4.6,13.724C45.7,45.9,45,46.4,44.378,46.966a.834.834,0,0,0-.285.51c-.026,1.113-.013,2.226-.013,3.428h.678c2.553,0,5.107.034,7.659-.014A2.472,2.472,0,0,1,55.2,52.724Z" transform="translate(-0.001 -23.709)" fill="#98bdff"/>
        <path id="Path_6127" data-name="Path 6127" d="M88.13,20.481a33.074,33.074,0,0,1-6.8-.761,6.84,6.84,0,0,1-4.524-2.948,8.259,8.259,0,0,1-.983-4.571c.063-2.946,1.765-4.787,4.19-6.112.58-.317,1.221-.52,1.813-.817a.9.9,0,0,0,.454-.494,5.967,5.967,0,0,1,11.7.013.833.833,0,0,0,.463.484,12.186,12.186,0,0,1,3.683,2.086,6.9,6.9,0,0,1,2.245,6.522A6.033,6.033,0,0,1,97.131,18.9a10.886,10.886,0,0,1-3.852,1.139c-1.712.187-3.432.3-5.149.44" transform="translate(-60.546 0)" fill="#98bdff"/>
      </g>
    </g>
    <g id="Ellipse_652" data-name="Ellipse 652" transform="translate(920 4281.924)" fill="#fff" stroke="#1060ff" stroke-width="3">
      <circle cx="19" cy="19" r="19" stroke="none"/>
      <circle cx="19" cy="19" r="17.5" fill="none"/>
    </g>
    <path id="Path_6128" data-name="Path 6128" d="M1.859,28.295H-1.459l-.523-13.357H2.382ZM-2.1,32.456a2.186,2.186,0,0,1,.65-1.631A2.225,2.225,0,0,1,.17,30.187a2.225,2.225,0,0,1,1.623.638,2.371,2.371,0,0,1,0,3.262,2.225,2.225,0,0,1-1.623.638,2.225,2.225,0,0,1-1.623-.638A2.186,2.186,0,0,1-2.1,32.456Z" transform="translate(938.641 4276.282)" fill="#1060ff"/>
  </g>
  <rect id="Rectangle_3269" data-name="Rectangle 3269" width="60" height="60" transform="translate(4)" fill="none"/>
</svg>
