<svg id="total_funding_icon" data-name="total funding_icon" xmlns="http://www.w3.org/2000/svg" width="60" height="60" viewBox="0 0 60 60">
  <g id="Group_3889" data-name="Group 3889" transform="translate(-1020.828 -372)">
    <rect id="Rectangle_143" data-name="Rectangle 143" width="60" height="60" transform="translate(1020.828 372)" fill="#fff"/>
    <g id="Group_3890" data-name="Group 3890" transform="translate(1020.828 386.615)">
      <path id="Path_62" data-name="Path 62" d="M25.19,6.761a16.575,16.575,0,0,1-3.886-.3,12.712,12.712,0,0,1-3.39-1.036A4.617,4.617,0,0,1,16.455,4.4a2.367,2.367,0,0,1-.338-.477.99.99,0,0,1,.054-1.062,3.861,3.861,0,0,1,1.464-1.242A12.615,12.615,0,0,1,21.177.395a24.6,24.6,0,0,1,2.8-.36,19.466,19.466,0,0,1,4.272.213,14.04,14.04,0,0,1,3.241.816A7.085,7.085,0,0,1,33.707,2.3a2.878,2.878,0,0,1,.342.36,1.214,1.214,0,0,1-.107,1.7,5.43,5.43,0,0,1-1.018.787,10.4,10.4,0,0,1-3.039,1.144,19.824,19.824,0,0,1-3.075.456c-.536.048-1.08.013-1.62.013" transform="translate(-1.628 0)" fill="#083ecb"/>
      <path id="Path_63" data-name="Path 63" d="M34.37,32.4c.017.111.028.222.034.334-.014.8-.026,1.608-.048,2.411a2.021,2.021,0,0,1-.886,1.672,8.161,8.161,0,0,1-2.326,1.169,14.9,14.9,0,0,1-1.962.5,23.65,23.65,0,0,1-2.388.278c-.751.053-1.506.062-2.261.053a19.474,19.474,0,0,1-4.073-.482,8.914,8.914,0,0,1-3.772-1.682A1.778,1.778,0,0,1,16,35.188c-.032-.833-.039-1.666-.053-2.5a1.7,1.7,0,0,1,.037-.261c.1.04.186.063.26.1.411.2.822.413,1.232.619a11.979,11.979,0,0,0,2.316.836,21.382,21.382,0,0,0,3.031.54,22.032,22.032,0,0,0,3.5.1,20.864,20.864,0,0,0,3.289-.408,14.336,14.336,0,0,0,3.976-1.4c.24-.133.49-.257.785-.409" transform="translate(-1.624 -3.267)" fill="#083ecb"/>
      <path id="Path_64" data-name="Path 64" d="M15.977,26.007c.324.168.589.294.843.438a12.757,12.757,0,0,0,4.662,1.521c.861.115,1.734.146,2.6.2a11.822,11.822,0,0,0,1.347.037c1.006-.049,2.011-.126,3.014-.2a13.194,13.194,0,0,0,2.784-.566,11.974,11.974,0,0,0,2.524-1.107c.186-.106.375-.206.605-.331a2.459,2.459,0,0,1,.041.314q-.018,1.295-.043,2.588a2.027,2.027,0,0,1-.957,1.574,7.687,7.687,0,0,1-2.454,1.169,16.472,16.472,0,0,1-3.744.7,26.225,26.225,0,0,1-3.256.057,17.613,17.613,0,0,1-5.176-.97,6.621,6.621,0,0,1-1.72-.88,4.554,4.554,0,0,1-.629-.57,1.6,1.6,0,0,1-.438-1.093c-.009-.833-.03-1.666-.041-2.5a3.362,3.362,0,0,1,.031-.379" transform="translate(-1.624 -2.621)" fill="#083ecb"/>
      <path id="Path_65" data-name="Path 65" d="M15.981,19.609c.307.161.561.283.808.424a12.4,12.4,0,0,0,3.742,1.349,18.353,18.353,0,0,0,3.054.365c.91.032,1.823.074,2.731.035A22.11,22.11,0,0,0,29.9,21.37a13,13,0,0,0,4-1.51c.134-.079.269-.146.454-.242a1.546,1.546,0,0,1,.057.3c-.012.873-.021,1.745-.05,2.617a1.863,1.863,0,0,1-.735,1.385,5.814,5.814,0,0,1-1.844,1.016,22.526,22.526,0,0,1-2.245.7,8.812,8.812,0,0,1-1.768.247c-1.361.049-2.721.038-4.083.06a13.514,13.514,0,0,1-5.772-1.286,4.54,4.54,0,0,1-1.343-.886,1.8,1.8,0,0,1-.574-1.281c-.022-.843-.034-1.686-.046-2.529.006-.118.018-.235.036-.352" transform="translate(-1.624 -1.977)" fill="#083ecb"/>
      <path id="Path_66" data-name="Path 66" d="M15.992,6.822c.341.185.634.339.924.5a9.918,9.918,0,0,0,2.312.927c.785.207,1.581.379,2.381.516a18.15,18.15,0,0,0,1.9.2c.664.042,1.333.078,2,.054.918-.035,1.835-.124,2.751-.2a15.026,15.026,0,0,0,2.8-.54,11.726,11.726,0,0,0,2.784-1.169c.158-.09.322-.174.529-.284a2.458,2.458,0,0,1,.043.324c-.013.833-.034,1.667-.046,2.5a1.932,1.932,0,0,1-.911,1.593,7.94,7.94,0,0,1-1.687.889,14.8,14.8,0,0,1-2.754.825,7.731,7.731,0,0,1-1.253.146c-1.331.034-2.665.073-4,.05a12.22,12.22,0,0,1-2.743-.261,14.369,14.369,0,0,1-3.446-1.242,7.189,7.189,0,0,1-.879-.586A1.693,1.693,0,0,1,16,9.7c-.022-.863-.036-1.726-.05-2.589a1.936,1.936,0,0,1,.041-.287" transform="translate(-1.624 -0.688)" fill="#083ecb"/>
      <path id="Path_67" data-name="Path 67" d="M15.989,13.221c.21.108.384.19.551.285a12.609,12.609,0,0,0,2.867,1.2,21.583,21.583,0,0,0,3.579.643,20.469,20.469,0,0,0,3.286.09,18.639,18.639,0,0,0,5.443-.982c.733-.27,1.437-.629,2.148-.947.15-.067.3-.141.469-.222a.791.791,0,0,1,.066.216c-.028.969-.057,1.939-.1,2.908a1.284,1.284,0,0,1-.4.829,5.078,5.078,0,0,1-1.518,1.042,12.814,12.814,0,0,1-3.2,1.045,12.472,12.472,0,0,1-1.838.2c-1.027.044-2.057.074-3.083.054a18,18,0,0,1-3.184-.275A11.737,11.737,0,0,1,17.617,18.1a7.935,7.935,0,0,1-1.054-.741A1.525,1.525,0,0,1,16,16.171c-.029-.9-.041-1.8-.057-2.706a1.5,1.5,0,0,1,.045-.245" transform="translate(-1.624 -1.333)" fill="#083ecb"/>
      <path id="Path_68" data-name="Path 68" d="M37.994,17.7V15.5c0-.374,0-.372.359-.42a2.651,2.651,0,0,0,.375-.068,5.543,5.543,0,0,1,1.659-.162c.948.024,1.9.027,2.848.076a20.156,20.156,0,0,1,2.569.235,10.5,10.5,0,0,1,4.069,1.529,2.745,2.745,0,0,1,.786.741,1.26,1.26,0,0,1-.168,1.733,4.466,4.466,0,0,1-1.237.885,13.26,13.26,0,0,1-4.042,1.271,21.076,21.076,0,0,1-4.77.243c-.692-.037-1.38-.152-2.07-.229a.27.27,0,0,1-.275-.264v-.016c-.028-.4-.076-.8-.083-1.2-.014-.719,0-1.432,0-2.148Z" transform="translate(-3.869 -1.496)" fill="#d9d9d9"/>
      <path id="Path_69" data-name="Path 69" d="M8.807,8.5c.636,0,1.274-.014,1.91,0,.6.017,1.192.065,1.787.109.269.02.359.11.4.382a5.536,5.536,0,0,1,.062.731q.009,1.132,0,2.265c-.01.862-.031,1.725-.049,2.588-.006.3-.01.324-.3.36-.719.081-1.437.188-2.156.205-.968.024-1.94,0-2.906-.053a15.658,15.658,0,0,1-3.64-.6,10.391,10.391,0,0,1-2.647-1.1,4.557,4.557,0,0,1-.816-.664,1.237,1.237,0,0,1-.1-1.745h0a.943.943,0,0,1,.09-.09A4.858,4.858,0,0,1,2.1,9.748,17.238,17.238,0,0,1,6.557,8.524a7.44,7.44,0,0,1,1.115-.03H8.817Z" transform="translate(-0.004 -0.856)" fill="#083ecb"/>
      <path id="Path_70" data-name="Path 70" d="M.049,21.544c.125.074.225.129.321.192a11.261,11.261,0,0,0,3.545,1.446,14.154,14.154,0,0,0,3.3.479c1.273.012,2.545.047,3.816.039a16.009,16.009,0,0,0,1.607-.142c.3-.033.333-.023.333.27v3.619c0,.278-.037.308-.324.336-.779.075-1.557.188-2.335.217-.869.032-1.742.012-2.612-.028a16.973,16.973,0,0,1-3.16-.48,11.116,11.116,0,0,1-3.25-1.246A5.671,5.671,0,0,1,.1,25.166a.437.437,0,0,1-.09-.27c-.005-1.068,0-2.137,0-3.206a.921.921,0,0,1,.037-.147" transform="translate(-0.001 -2.172)" fill="#083ecb"/>
      <path id="Path_71" data-name="Path 71" d="M38.016,29.938l1,.09c.09.008.175.029.261.03,1.257.02,2.508.068,3.761.047a15.293,15.293,0,0,0,3.524-.395A16.7,16.7,0,0,0,49.7,28.647c.324-.156.622-.37.931-.557l.281-.174a2.418,2.418,0,0,1,.043.3c0,1,0,2,.008,3a.576.576,0,0,1-.14.371,5.671,5.671,0,0,1-2.694,1.8,15.9,15.9,0,0,1-3.629.829,21.308,21.308,0,0,1-3.22.2c-.82-.029-1.638-.124-2.456-.194-.215-.018-.428-.054-.641-.079A.187.187,0,0,1,38,33.954a.173.173,0,0,1,0-.031V30.3a3.622,3.622,0,0,1,.015-.365" transform="translate(-3.87 -2.815)" fill="#d9d9d9"/>
      <path id="Path_72" data-name="Path 72" d="M.044,15.193c.1.046.175.078.248.119a14.615,14.615,0,0,0,2.984,1.3,13.833,13.833,0,0,0,3.593.644c1.066.02,2.132.094,3.2.09.791,0,1.58-.1,2.371-.149l.514-.036c.008.127.019.222.019.318,0,.825,0,1.647-.006,2.471,0,.342-.031.685-.061,1.027-.028.319-.082.36-.392.4a21.559,21.559,0,0,1-4.245.228c-.7-.036-1.4-.124-2.1-.208a14.961,14.961,0,0,1-3.361-.809A6.3,6.3,0,0,1,.714,19.419a7.225,7.225,0,0,1-.639-.687A.416.416,0,0,1,0,18.488Q0,16.942,0,15.4a1.325,1.325,0,0,1,.04-.206" transform="translate(0 -1.532)" fill="#083ecb"/>
      <path id="Path_73" data-name="Path 73" d="M.047,27.948a1.264,1.264,0,0,1,.222.108,8.267,8.267,0,0,0,2.289,1.12,19.55,19.55,0,0,0,3.188.8,5.975,5.975,0,0,0,.878.082c1.283.026,2.566.063,3.85.049.742-.008,1.482-.1,2.223-.158.075-.006.152,0,.253,0,.011.118.028.213.028.307v3.562c0,.3-.031.336-.322.372a27.567,27.567,0,0,1-4.517.172,17.914,17.914,0,0,1-4.685-.75A7.236,7.236,0,0,1,1.01,32.419a11.556,11.556,0,0,1-.865-.8.478.478,0,0,1-.133-.307c-.009-1.06-.006-2.12,0-3.18a1.076,1.076,0,0,1,.035-.184" transform="translate(-0.001 -2.818)" fill="#083ecb"/>
      <path id="Path_74" data-name="Path 74" d="M50.941,21.585c.007.105.019.2.019.3,0,.971,0,1.943.008,2.913a.673.673,0,0,1-.186.472,6.256,6.256,0,0,1-2.828,1.772,16.509,16.509,0,0,1-3,.719,19.692,19.692,0,0,1-4.126.249c-.634-.036-1.266-.123-1.9-.18-.214-.021-.429-.03-.644-.049-.252-.023-.3-.061-.3-.3V23.8c0-.261.044-.277.3-.251.748.08,1.5.167,2.245.211.605.035,1.214.013,1.822.015a19.166,19.166,0,0,0,3.674-.369,17.553,17.553,0,0,0,2.742-.76,9.325,9.325,0,0,0,1.855-.942c.066-.042.134-.081.2-.118.022-.013.046-.006.113-.006" transform="translate(-3.869 -2.176)" fill="#d9d9d9"/>
      <path id="Path_75" data-name="Path 75" d="M26.612,23A17.42,17.42,0,1,1,44.018,40.458h-.295A17.446,17.446,0,0,1,26.612,23" transform="translate(-2.71 -0.563)" fill="#05c1a4"/>
      <path id="Path_76" data-name="Path 76" d="M43.908,4.178h.134A18.7,18.7,0,1,1,25.2,22.868v-.016a18.707,18.707,0,0,1,18.7-18.674Zm.006,34.87a16.166,16.166,0,0,0,.11-32.33h-.116a16.166,16.166,0,0,0-.3,32.329Z" transform="translate(-2.567 -0.422)" fill="#fff"/>
      <path id="Path_77" data-name="Path 77" d="M45.992,33.028c.071-.021.11-.034.152-.044s.1-.02.151-.027a6.581,6.581,0,0,0,2.751-1.019,5,5,0,0,0,2.226-3.215,7.135,7.135,0,0,0,.076-2.34,4.533,4.533,0,0,0-1.212-2.647,5.877,5.877,0,0,0-2.644-1.587q-1.476-.451-2.942-.921A3.2,3.2,0,0,1,42.837,20a2.7,2.7,0,0,1,.546-3.772l.044-.032a2.465,2.465,0,0,1,2.846-.218,2.591,2.591,0,0,1,1.257,1.742c.07.291.159.579.253.866a1.331,1.331,0,0,0,1.081.943,2.358,2.358,0,0,0,.533.032,1.656,1.656,0,0,0,1.592-1.684,2.923,2.923,0,0,0-.236-1.078,5.948,5.948,0,0,0-3.824-3.5c-.3-.1-.6-.16-.932-.247,0-.243,0-.483,0-.723a1.064,1.064,0,0,0-2.07-.33,2.134,2.134,0,0,0-.066.483,2.586,2.586,0,0,1-.033.586c-.086.02-.156.043-.23.057A5.477,5.477,0,0,0,41.3,14.129a5.291,5.291,0,0,0-2.141,3.02,6.76,6.76,0,0,0-.053,3,4.22,4.22,0,0,0,.671,1.607,6.554,6.554,0,0,0,2.558,2.08,18.638,18.638,0,0,0,3.16,1.149,5.094,5.094,0,0,1,1.738.837,1.954,1.954,0,0,1,.823,1.318,4.085,4.085,0,0,1,.027.926,2.2,2.2,0,0,1-.54,1.261,3.1,3.1,0,0,1-2.835,1.087,3.231,3.231,0,0,1-1.665-.658,3.549,3.549,0,0,1-1-1.378c-.136-.307-.257-.621-.4-.924a1.984,1.984,0,0,0-.292-.477,1.713,1.713,0,0,0-2.866,1.636,4.557,4.557,0,0,0,.707,1.648,5.5,5.5,0,0,0,2.269,2.057,8.31,8.31,0,0,0,2.171.64c.229.038.229.036.231.276v.514a1.071,1.071,0,0,0,1.122,1.017,1.018,1.018,0,0,0,.136-.016A1.056,1.056,0,0,0,46,33.67c0-.213-.005-.429-.005-.641" transform="translate(-3.599 -0.567)" fill="#fff"/>
    </g>
  </g>
</svg>
