<svg id="acquisition_icon" xmlns="http://www.w3.org/2000/svg" xmlns:xlink="http://www.w3.org/1999/xlink" width="60" height="60" viewBox="0 0 60 60">
  <defs>
    <clipPath id="clip-path">
      <rect id="Rectangle_144" data-name="Rectangle 144" width="44.748" height="59.717" fill="none"/>
    </clipPath>
  </defs>
  <rect id="Rectangle_139" data-name="Rectangle 139" width="60" height="60" fill="#fff"/>
  <g id="Group_3926" data-name="Group 3926" transform="translate(-746.397 -379)">
    <g id="Group_3925" data-name="Group 3925" transform="translate(0 -1.098)">
      <path id="Path_122" data-name="Path 122" d="M44.348,7.03c.113-.1.2-.184.288-.256a1.112,1.112,0,0,1,1.668,1.4,2.276,2.276,0,0,1-.372.476c-.61.629-1.238,1.25-1.861,1.873a1.154,1.154,0,0,1-1.618.206,1.176,1.176,0,0,1-.2-.2q-.97-.968-1.935-1.943a1.308,1.308,0,0,1-.436-.834,1.056,1.056,0,0,1,.547-1.063,1.039,1.039,0,0,1,1.19.048c.122.084.231.188.36.29a4.225,4.225,0,0,0-3.447-4.659,7.664,7.664,0,0,0-1.259-.1c-4.095-.007-8.19,0-12.284-.009a2.007,2.007,0,0,1-.691-.1,1.024,1.024,0,0,1-.654-1.044,1.045,1.045,0,0,1,.719-1,2.33,2.33,0,0,1,.7-.1c4.2,0,8.393-.023,12.586,0A6.532,6.532,0,0,1,44.121,5.19c.13.6.152,1.209.227,1.84" transform="translate(747.009 396.554)" fill="#083ecb"/>
      <path id="Path_123" data-name="Path 123" d="M9.591,32.92a4.459,4.459,0,0,1-.379.307,1.07,1.07,0,0,1-1.381-.106,1.1,1.1,0,0,1-.244-1.366,1.975,1.975,0,0,1,.345-.449q.976-1,1.97-1.978a1.156,1.156,0,0,1,1.626-.174,1.261,1.261,0,0,1,.153.149c.689.676,1.366,1.366,2.045,2.052a1.231,1.231,0,0,1,.423.91,1.133,1.133,0,0,1-1.772.95,4.772,4.772,0,0,1-.395-.318,4.289,4.289,0,0,0,1.028,3.326,4.405,4.405,0,0,0,3.526,1.545q5.148.005,10.3,0H27.4A1.125,1.125,0,0,1,27.592,40a3.176,3.176,0,0,1-.665.067c-3.506,0-7,.023-10.5,0A6.692,6.692,0,0,1,9.8,34.738a17.13,17.13,0,0,1-.213-1.818" transform="translate(748.645 393.635)" fill="#05c1a4"/>
      <rect id="Rectangle_191" data-name="Rectangle 191" width="19.075" height="24.02" transform="translate(749.397 396.557)" fill="#083ecb"/>
      <rect id="Rectangle_192" data-name="Rectangle 192" width="4.419" height="5.816" transform="translate(752.837 399.568)" fill="#fff"/>
      <rect id="Rectangle_193" data-name="Rectangle 193" width="4.606" height="5.816" transform="translate(760.416 399.568)" fill="#fff"/>
      <rect id="Rectangle_194" data-name="Rectangle 194" width="4.419" height="5.816" transform="translate(752.837 407.054)" fill="#fff"/>
      <rect id="Rectangle_195" data-name="Rectangle 195" width="4.606" height="5.816" transform="translate(760.416 407.054)" fill="#fff"/>
      <rect id="Rectangle_196" data-name="Rectangle 196" width="6.127" height="4.193" transform="translate(755.859 416.385)" fill="#fff"/>
      <path id="Path_124" data-name="Path 124" d="M43.635,13.864A14.04,14.04,0,1,1,29.595,27.9a14.04,14.04,0,0,1,14.04-14.04" transform="translate(746.408 395.154)" fill="#05c1a4"/>
      <path id="Path_125" data-name="Path 125" d="M45.516,37.053c.064-.018.1-.03.134-.038s.09-.018.133-.024a5.854,5.854,0,0,0,2.442-.889,4.358,4.358,0,0,0,1.968-2.808,6.12,6.12,0,0,0,.068-2.04,3.921,3.921,0,0,0-1.073-2.309,5.23,5.23,0,0,0-2.337-1.384q-1.307-.392-2.607-.8a2.826,2.826,0,0,1-1.517-1.079,2.329,2.329,0,0,1,.448-3.262h0l.074-.054a2.207,2.207,0,0,1,2.517-.19,2.268,2.268,0,0,1,1.112,1.519c.062.254.14.507.224.756a1.18,1.18,0,0,0,.956.825,2.176,2.176,0,0,0,.471.028,1.455,1.455,0,0,0,1.409-1.465,2.515,2.515,0,0,0-.209-.941,5.236,5.236,0,0,0-3.386-3.057c-.262-.09-.534-.14-.825-.215V19a.944.944,0,0,0-1.831-.289,1.943,1.943,0,0,0-.058.42,2.207,2.207,0,0,1-.03.511c-.073.017-.138.037-.2.049a4.909,4.909,0,0,0-2.031.877,4.62,4.62,0,0,0-1.9,2.632,5.8,5.8,0,0,0-.048,2.615,3.636,3.636,0,0,0,.6,1.4,5.793,5.793,0,0,0,2.264,1.813,16.692,16.692,0,0,0,2.8,1,4.538,4.538,0,0,1,1.538.733,1.694,1.694,0,0,1,.733,1.149,3.531,3.531,0,0,1,.023.809,1.9,1.9,0,0,1-.477,1.1,2.773,2.773,0,0,1-2.509.947,2.9,2.9,0,0,1-1.473-.574,3.076,3.076,0,0,1-.889-1.2c-.122-.27-.226-.539-.352-.809a1.723,1.723,0,0,0-.259-.419,1.527,1.527,0,0,0-1.609-.326,1.493,1.493,0,0,0-.93,1.752,3.9,3.9,0,0,0,.629,1.438,4.83,4.83,0,0,0,2.009,1.8,7.414,7.414,0,0,0,1.92.559c.2.034.2.031.2.245v.449a.943.943,0,0,0,1,.887h0a1.022,1.022,0,0,0,.116-.014.925.925,0,0,0,.777-.94c-.008-.182-.01-.368-.01-.552" transform="translate(745.474 394.727)" fill="#fff"/>
    </g>
  </g>
</svg>
