<svg id="AI_features" data-name="AI features" xmlns="http://www.w3.org/2000/svg" xmlns:xlink="http://www.w3.org/1999/xlink" width="60" height="60" viewBox="0 0 60 60">
  <defs>
    <clipPath id="clip-path">
      <rect id="Rectangle_3878" data-name="Rectangle 3878" width="48" height="45.332" fill="none"/>
    </clipPath>
  </defs>
  <rect id="Rectangle_3879" data-name="Rectangle 3879" width="60" height="60" fill="#fff"/>
  <g id="Group_56905" data-name="Group 56905" transform="translate(-1275 -1719)">
    <g id="Group_56902" data-name="Group 56902" transform="translate(1281 1726)">
      <g id="Group_56901" data-name="Group 56901" transform="translate(0 0)" clip-path="url(#clip-path)">
        <path id="Path_6244" data-name="Path 6244" d="M45.069,19.949a2.924,2.924,0,0,0-2.741,1.919H37.472a13.416,13.416,0,0,0-.7-3.461c1.008,0,1.947.011,2.882,0a2.573,2.573,0,0,0,2.887-2.85c.007-.357.006-.709,0-1.048a2.912,2.912,0,0,0,.086-5.557c-.1-.043-.2-.086-.308-.123A2.026,2.026,0,0,0,41,8.876a2.918,2.918,0,0,0-.037,5.66c.007.391.01.772-.019,1.143A1.06,1.06,0,0,1,39.8,16.8c-1.267.032-2.529.018-3.688.013A13.568,13.568,0,0,0,30,10.693c-.007-.732-.019-1.491.014-2.258.045-1.029.44-1.381,1.512-1.431.428-.019.852-.012,1.257-.007a2.943,2.943,0,1,0,.062-1.583,5.771,5.771,0,0,1-.977-.012,2.983,2.983,0,0,0-3.476,3.561,7.527,7.527,0,0,1,.025,1.066,13.478,13.478,0,0,0-3.524-.711v-3.6a2.929,2.929,0,1,0-1.649.029c0,1.181.047,2.384-.017,3.565a13.471,13.471,0,0,0-3.513.661c.008-.579.017-1.148-.016-1.708a2.764,2.764,0,0,0-2.981-2.851c-.5-.01-.99,0-1.463,0a2.923,2.923,0,1,0,.051,1.629c.844-.034,1.744-.266,2.555.457v3.254a13.562,13.562,0,0,0-6,6.068h-.716c-.9,0-1.8.024-2.7-.01-.922-.034-1.244-.36-1.293-1.275-.022-.421-.016-.834-.011-1.233a2.932,2.932,0,1,0-1.583,0,9.417,9.417,0,0,1-.016,1.1A2.686,2.686,0,0,0,8.58,18.423,25.411,25.411,0,0,1,11.2,18.4a13.389,13.389,0,0,0-.7,3.5H5.68a2.934,2.934,0,1,0,.044,1.822c1,0,1.859-.014,2.708.006.7.017,1.4-.051,2.067-.008a13.493,13.493,0,0,0,.719,3.54,20.893,20.893,0,0,1-2.524,0,2.734,2.734,0,0,0-3.148,3.209,10.152,10.152,0,0,1,.012,1.187,2.932,2.932,0,1,0,1.589,0c-.007-.584-.024-1.135.014-1.672.045-.661.391-1.074,1.005-1.09,1.256-.036,2.506-.024,3.735-.018a13.568,13.568,0,0,0,5.953,5.984V38.21a3.332,3.332,0,0,1-2.583.432,2.93,2.93,0,1,0,.012,1.63c.379,0,.77,0,1.163,0,2.176-.017,3.208-1.022,3.257-3.186.011-.482.008-.965,0-1.448A13.492,13.492,0,0,0,23.2,36.3v4.031c-1.856,1.455-2.177,2.731-1.059,4.045a2.345,2.345,0,0,0,3.665.147c1.251-1.281.957-2.65-.965-4.3.075-1.273-.08-2.586.054-3.929a13.471,13.471,0,0,0,3.516-.709,14.075,14.075,0,0,1-.022,1.751,2.846,2.846,0,0,0,2.9,2.947,11.824,11.824,0,0,1,1.52-.017,2.931,2.931,0,1,0,0-1.581c-.461.007-.953.023-1.449-.011-.886-.06-1.294-.426-1.338-1.293-.042-.809-.028-1.629-.019-2.466a13.563,13.563,0,0,0,6.073-6.05c1.23,0,2.418-.017,3.592.012.9.022,1.228.372,1.281,1.294.022.377.017.762.012,1.16a2.917,2.917,0,1,0,1.589-.089c.006-.49.011-.966-.012-1.433a2.489,2.489,0,0,0-2.45-2.521c-.5-.036-1,.006-1.5-.02-.592-.03-1.2.065-1.826-.026a13.435,13.435,0,0,0,.713-3.519h4.8a2.925,2.925,0,1,0,2.793-3.772" transform="translate(0 0)" fill="#ff7805"/>
        <path id="Path_6245" data-name="Path 6245" d="M21.846,32.02a10.977,10.977,0,0,1-11.09-11.112,11.15,11.15,0,1,1,22.3.117A10.915,10.915,0,0,1,21.846,32.02m9.912-11.1a9.893,9.893,0,1,0-9.833,9.929c5.543-.007,10.064-4.87,9.833-9.929" transform="translate(2.117 1.926)" fill="#fff"/>
        <circle id="Ellipse_669" data-name="Ellipse 669" cx="12" cy="12" r="12" transform="translate(12 11)" fill="#1b4965"/>
        <path id="Path_6246" data-name="Path 6246" d="M7.175-5.945H3L2.124-3.434H.176L4.25-14.219H5.931L10.012-3.434H8.057ZM3.524-7.456H6.649L5.087-11.93ZM14.212-3.434H12.345V-14.219h1.867Z" transform="translate(15.697 31.493)" fill="#fff"/>
      </g>
    </g>
  </g>
</svg>
