<svg id="banking_icon" xmlns="http://www.w3.org/2000/svg" width="50" height="50" viewBox="0 0 50 50">
  <g id="Group_3955" data-name="Group 3955">
    <g id="Group_3936" data-name="Group 3936">
      <rect id="Rectangle_143" data-name="Rectangle 143" width="50" height="50" fill="none"/>
    </g>
  </g>
  <g id="Group_3956" data-name="Group 3956" transform="translate(5 3.334)">
    <rect id="Rectangle_232" data-name="Rectangle 232" width="4.736" height="17.418" transform="translate(4.382 18.776)" fill="#ff7805" stroke="#f5f9ff" stroke-width="1"/>
    <rect id="Rectangle_235" data-name="Rectangle 235" width="4.736" height="17.418" transform="translate(31.314 18.776)" fill="#ff7805" stroke="#f5f9ff" stroke-width="1"/>
    <rect id="Rectangle_234" data-name="Rectangle 234" width="31.668" height="5.191" transform="translate(4.382 12.942)" fill="#083ecb"/>
    <path id="Path_6036" data-name="Path 6036" d="M13.616,32.2a7.267,7.267,0,1,1,7.261,7.273h-.123A7.274,7.274,0,0,1,13.616,32.2" transform="translate(-0.738 -4.177)" fill="#083ecb"/>
    <path id="Path_6037" data-name="Path 6037" d="M22.87,37.311l.066-.019A.567.567,0,0,1,23,37.28a2.883,2.883,0,0,0,1.2-.447,2.188,2.188,0,0,0,.973-1.405,3.106,3.106,0,0,0,.034-1.023,1.982,1.982,0,0,0-.53-1.157,2.574,2.574,0,0,0-1.157-.693q-.646-.2-1.288-.4a1.4,1.4,0,0,1-.75-.538,1.178,1.178,0,0,1,.239-1.649l.019-.013a1.08,1.08,0,0,1,1.245-.095,1.134,1.134,0,0,1,.55.761c.031.127.069.253.11.378a.582.582,0,0,0,.473.414,1.017,1.017,0,0,0,.233.013.724.724,0,0,0,.7-.736,1.283,1.283,0,0,0-.1-.471,2.6,2.6,0,0,0-1.673-1.529c-.13-.042-.264-.07-.408-.108v-.316a.466.466,0,0,0-.906-.144.964.964,0,0,0-.029.211,1.134,1.134,0,0,1-.015.256c-.036.009-.069.019-.1.025a2.4,2.4,0,0,0-1,.44,2.314,2.314,0,0,0-.938,1.32,2.958,2.958,0,0,0-.023,1.31,1.845,1.845,0,0,0,.293.7,2.878,2.878,0,0,0,1.117.909,8.163,8.163,0,0,0,1.383.5,2.226,2.226,0,0,1,.76.366.85.85,0,0,1,.36.576,1.75,1.75,0,0,1,.012.4.961.961,0,0,1-.236.551,1.36,1.36,0,0,1-1.241.475,1.421,1.421,0,0,1-.728-.288,1.561,1.561,0,0,1-.439-.6c-.06-.134-.112-.272-.174-.4a.882.882,0,0,0-.128-.209.75.75,0,0,0-1.254.716,1.994,1.994,0,0,0,.31.72,2.41,2.41,0,0,0,.993.9,3.645,3.645,0,0,0,.95.28c.1.016.1.016.1.121v.223a.469.469,0,0,0,.489.447h0a.52.52,0,0,0,.06-.007.462.462,0,0,0,.385-.471c0-.09,0-.185,0-.278" transform="translate(-2.253 -4.91)" fill="#fff"/>
    <path id="Path_6038" data-name="Path 6038" d="M3.543,31.708V25.744H35.667v2.564h0v3.4Z" transform="translate(0.538 10.96)" fill="#083ecb" stroke="#fff" stroke-width="1"/>
    <path id="Polygon_8" data-name="Polygon 8" d="M19.749.482a1,1,0,0,1,1.233,0L38.446,14.15a1,1,0,0,1-.616,1.788H2.9a1,1,0,0,1-.616-1.788Z" fill="#083ecb"/>
    <circle id="Ellipse_9" data-name="Ellipse 9" cx="2.916" cy="2.916" r="2.916" transform="translate(17.449 7.969)" fill="#fff"/>
  </g>
</svg>
