<svg id="diverse_icon" xmlns="http://www.w3.org/2000/svg" xmlns:xlink="http://www.w3.org/1999/xlink" width="60" height="60" viewBox="0 0 60 60">
  <defs>
    <clipPath id="clip-path">
      <rect id="Rectangle_144" data-name="Rectangle 144" width="44.748" height="59.717" fill="none"/>
    </clipPath>
  </defs>
  <rect id="Rectangle_139" data-name="Rectangle 139" width="60" height="60" fill="#fff"/>
  <path id="Path_44" data-name="Path 44" d="M34.2,22.235v5.03c0,.636-.258.892-.9.892H23.242c-.618,0-.883-.261-.883-.87v-10.1c0-.612.263-.873.879-.873H33.3c.643,0,.9.254.9.888q.007,2.516,0,5.032" transform="translate(10.03 0.16)" fill="#b273fc"/>
  <path id="Path_45" data-name="Path 45" d="M10.936,29.7a3.658,3.658,0,0,1-.533-.276q-2.869-2.181-5.731-4.375a.754.754,0,0,1-.322-.994q1.085-3.543,2.175-7.085a.781.781,0,0,1,.894-.649h7.065a.763.763,0,0,1,.87.63q1.1,3.558,2.187,7.121a.751.751,0,0,1-.312.968q-2.876,2.206-5.759,4.4a3.138,3.138,0,0,1-.535.263" transform="translate(11.494 0.161)" fill="#083ecb"/>
  <path id="Path_46" data-name="Path 46" d="M22.339,5.937A5.922,5.922,0,0,1,28.245,0h.035a5.93,5.93,0,0,1,0,11.861h-.028a5.924,5.924,0,0,1-5.917-5.924" transform="translate(10.032 1.482)" fill="#083ecb"/>
  <path id="Path_47" data-name="Path 47" d="M11.021,12.034H6.242c-.675,0-.937-.46-.6-1.046q2.394-4.2,4.794-8.392c.335-.585.883-.595,1.215-.016Q14.06,6.789,16.46,11c.325.571.055,1.034-.6,1.034Z" transform="translate(11.396 1.308)" fill="#b273fc"/>
  <g id="Group_5482" data-name="Group 5482" transform="translate(-745 -379.397)">
    <path id="Path_48" data-name="Path 48" d="M6.795,39.879a4.7,4.7,0,1,1-4.7,4.7,4.7,4.7,0,0,1,4.7-4.7" transform="translate(751.166 374.265)" fill="#083ecb"/>
    <path id="Path_49" data-name="Path 49" d="M21.546,39.879a4.7,4.7,0,1,1-4.7,4.7,4.7,4.7,0,0,1,4.7-4.7" transform="translate(754.533 374.265)" fill="#083ecb"/>
    <path id="Path_50" data-name="Path 50" d="M36.165,39.879a4.7,4.7,0,1,1-4.7,4.7,4.7,4.7,0,0,1,4.7-4.7" transform="translate(757.871 374.265)" fill="#083ecb"/>
    <path id="Path_51" data-name="Path 51" d="M0,50.974v5.584H14.543V50.972c0-1.543-2.172-2.794-4.849-2.794H4.846C2.172,48.179,0,49.433,0,50.974" transform="translate(750.688 376.159)" fill="#083ecb"/>
    <path id="Path_52" data-name="Path 52" d="M14.751,50.974v5.584H29.3V50.972c0-1.543-2.172-2.794-4.849-2.794H19.6c-2.678,0-4.849,1.255-4.849,2.8" transform="translate(754.056 376.159)" fill="#083ecb"/>
    <path id="Path_53" data-name="Path 53" d="M29.371,50.974v5.584H43.918V50.972c0-1.543-2.172-2.794-4.849-2.794H34.22c-2.678,0-4.849,1.255-4.849,2.8" transform="translate(757.394 376.159)" fill="#083ecb"/>
    <path id="Path_54" data-name="Path 54" d="M6.837,37.952a4.133,4.133,0,0,1,.08-.807A3.511,3.511,0,0,1,10.37,34.32q5.986-.013,11.967-.02h1.05V40.55h1.577V34.32h1.447c3.808,0,7.616.039,11.423-.015h.084a3.654,3.654,0,0,1,3.62,3.685c-.025,3.976,0-1.42,0,2.558h1.548c0-4.08,0,1.214,0-2.867A4.508,4.508,0,0,0,42.4,35.3a4.987,4.987,0,0,0-4.481-2.541H10.434a5.181,5.181,0,0,0-1.135.123A5.054,5.054,0,0,0,5.293,37.89c-.009,4.013-.009-1.35,0,2.663H6.838Z" transform="translate(751.895 378.639)" fill="#083ecb"/>
  </g>
</svg>
