<svg id="helath_sector_icon" data-name="helath sector_icon" xmlns="http://www.w3.org/2000/svg" xmlns:xlink="http://www.w3.org/1999/xlink" width="50" height="50" viewBox="0 0 50 50">
  <defs>
    <clipPath id="clip-path">
      <path id="Path_6025" data-name="Path 6025" d="M16.547,4.82c.75-.732,1.351-1.336,1.97-1.92a8.235,8.235,0,0,1,11.374-.148,8.271,8.271,0,0,1,.76,11.477c-.339.415-.711.8-1.089,1.183Q23.7,21.28,17.835,27.14c-.376.375-.779.724-1.238,1.15a12.365,12.365,0,0,1-1.012-.814q-6.213-6.2-12.412-12.407A8.343,8.343,0,0,1,.5,8.739,7.9,7.9,0,0,1,5.465,1.285a7.862,7.862,0,0,1,8.845,1.4C15.039,3.3,15.7,4.006,16.547,4.82Z" transform="translate(-0.5 -0.5)" fill="none" stroke="#fff" stroke-width="4"/>
    </clipPath>
  </defs>
  <g id="Group_3934" data-name="Group 3934">
    <g id="Group_3936" data-name="Group 3936">
      <rect id="Rectangle_143" data-name="Rectangle 143" width="50" height="50" fill="none"/>
    </g>
    <g id="Group_3957" data-name="Group 3957" transform="translate(6.147 8.683)">
      <path id="Path_132" data-name="Path 132" d="M19.343,5.573c.88-.86,1.586-1.569,2.314-2.255a9.67,9.67,0,0,1,13.357-.174,9.712,9.712,0,0,1,.892,13.478c-.4.487-.835.943-1.279,1.389Q27.745,24.9,20.856,31.784c-.442.441-.915.85-1.454,1.351a14.52,14.52,0,0,1-1.188-.956q-7.3-7.275-14.575-14.57A9.8,9.8,0,0,1,.5,10.176,9.273,9.273,0,0,1,6.33,1.421C10.066-.266,13.6.412,16.717,3.064,17.573,3.793,18.349,4.617,19.343,5.573Z" transform="translate(-0.5 -0.5)" fill="#0075fe"/>
      <path id="Path_6023" data-name="Path 6023" d="M19.343,5.573c.88-.86,1.586-1.569,2.314-2.255a9.67,9.67,0,0,1,13.357-.174,9.712,9.712,0,0,1,.892,13.478c-.4.487-.835.943-1.279,1.389Q27.745,24.9,20.856,31.784c-.442.441-.915.85-1.454,1.351a14.52,14.52,0,0,1-1.188-.956q-7.3-7.275-14.575-14.57A9.8,9.8,0,0,1,.5,10.176,9.273,9.273,0,0,1,6.33,1.421C10.066-.266,13.6.412,16.717,3.064,17.573,3.793,18.349,4.617,19.343,5.573Z" transform="translate(-0.5 -0.5)" fill="#083ecb"/>
      <g id="Mask_Group_1" data-name="Mask Group 1" transform="translate(2.899 2.866)" clip-path="url(#clip-path)">
        <g id="Group_3946" data-name="Group 3946" transform="translate(-0.649 5.498)">
          <path id="Path_6024" data-name="Path 6024" d="M271.984,1313.52s-10.093.484-10.214.522-1.082-8.052-1.128-8.229-3.232,14.91-3.172,14.868-2.289-10-2.265-9.794-1.706,4.954-1.692,4.816c0,0-3.637-9.881-3.855-9.89s-2.549,6.5-2.716,6.571-7.41,0-7.41,0" transform="translate(-239.531 -1305.812)" fill="none" stroke="#fff" stroke-width="4"/>
        </g>
        <g id="Group_5381" data-name="Group 5381" transform="translate(-0.649 5.498)">
          <path id="Path_6024-2" data-name="Path 6024" d="M271.984,1313.52s-10.093.484-10.214.522-1.082-8.052-1.128-8.229-3.232,14.91-3.172,14.868-2.289-10-2.265-9.794-1.706,4.954-1.692,4.816c0,0-3.637-9.881-3.855-9.89s-2.549,6.5-2.716,6.571-7.41,0-7.41,0" transform="translate(-239.531 -1305.812)" fill="none" stroke="#fd7705" stroke-width="1.6"/>
        </g>
      </g>
    </g>
  </g>
</svg>
