<svg id="IPO_Date_icon" data-name="IPO Date_icon" xmlns="http://www.w3.org/2000/svg" width="54.35" height="54.08" viewBox="0 0 54.35 54.08">
  <g id="Group_3907" data-name="Group 3907" transform="translate(0 0.168)">
    <path id="Path_88" data-name="Path 88" d="M4,.832H30.976a4,4,0,0,1,4,4V38.8a4,4,0,0,1-4,4H4a4,4,0,0,1-4-4V4.832a4,4,0,0,1,4-4" fill="#083ecb"/>
    <path id="Path_89" data-name="Path 89" d="M10.217,13.947c1.633,0,3.267-.011,4.9,0A1.147,1.147,0,0,1,16.351,15a1.179,1.179,0,0,1-.011.272,1.3,1.3,0,0,1-1.1,1.234,3.889,3.889,0,0,1-.571.011H5.685a3.406,3.406,0,0,1-.571-.015,1.347,1.347,0,0,1-1.083-1.368,1.192,1.192,0,0,1,1.2-1.186h.007c1.66-.011,3.32,0,4.981,0" fill="#fff"/>
    <path id="Path_90" data-name="Path 90" d="M19.377,13.947c1.633,0,3.267-.011,4.9,0A1.146,1.146,0,0,1,25.51,15a1.17,1.17,0,0,1-.011.271,1.3,1.3,0,0,1-1.1,1.234,3.889,3.889,0,0,1-.571.011H14.844a3.391,3.391,0,0,1-.57-.015,1.347,1.347,0,0,1-1.083-1.368,1.192,1.192,0,0,1,1.2-1.186H14.4c1.66-.011,3.321,0,4.981,0" fill="#fff"/>
    <path id="Path_91" data-name="Path 91" d="M24.822,13.947c1.633,0,3.267-.011,4.9,0A1.147,1.147,0,0,1,30.956,15a1.179,1.179,0,0,1-.011.272,1.3,1.3,0,0,1-1.1,1.234,3.755,3.755,0,0,1-.571.011H20.29a3.391,3.391,0,0,1-.57-.015,1.347,1.347,0,0,1-1.083-1.368,1.192,1.192,0,0,1,1.2-1.186h.007c1.659-.011,3.32,0,4.98,0" fill="#fff"/>
    <path id="Path_92" data-name="Path 92" d="M10.217,20.55c1.633,0,3.267-.012,4.9,0A1.147,1.147,0,0,1,16.351,21.6a1.179,1.179,0,0,1-.011.272,1.3,1.3,0,0,1-1.1,1.234,3.889,3.889,0,0,1-.571.011H5.685a3.406,3.406,0,0,1-.571-.015,1.346,1.346,0,0,1-1.083-1.368,1.193,1.193,0,0,1,1.2-1.186h.005c1.66-.011,3.32,0,4.981,0" fill="#fff"/>
    <path id="Path_93" data-name="Path 93" d="M19.377,20.55c1.633,0,3.267-.012,4.9,0A1.146,1.146,0,0,1,25.51,21.6a1.17,1.17,0,0,1-.011.271,1.3,1.3,0,0,1-1.1,1.234,3.889,3.889,0,0,1-.571.011H14.844a3.391,3.391,0,0,1-.57-.015,1.346,1.346,0,0,1-1.083-1.368,1.192,1.192,0,0,1,1.2-1.186H14.4c1.66-.011,3.321,0,4.981,0" fill="#fff"/>
    <path id="Path_94" data-name="Path 94" d="M10.217,27.153c1.633,0,3.267-.012,4.9,0a1.147,1.147,0,0,1,1.234,1.053,1.179,1.179,0,0,1-.011.272,1.3,1.3,0,0,1-1.1,1.234,3.889,3.889,0,0,1-.571.011H5.685a3.406,3.406,0,0,1-.571-.015A1.346,1.346,0,0,1,4.031,28.34a1.192,1.192,0,0,1,1.2-1.186h.007c1.66-.011,3.32,0,4.981,0" fill="#fff"/>
    <path id="Path_95" data-name="Path 95" d="M12.715,27.153c1.633,0,3.267-.012,4.9,0a1.147,1.147,0,0,1,1.234,1.053,1.179,1.179,0,0,1-.011.272,1.3,1.3,0,0,1-1.1,1.234,3.889,3.889,0,0,1-.571.011H8.183a3.391,3.391,0,0,1-.57-.015A1.346,1.346,0,0,1,6.53,28.34a1.192,1.192,0,0,1,1.2-1.186h.007c1.659-.011,3.319,0,4.98,0" fill="#fff"/>
    <path id="Path_96" data-name="Path 96" d="M8.624,0H3.711a.979.979,0,0,0-.974.982l0,7.856L6.169,7.365,9.606,8.838V.982A.985.985,0,0,0,8.624,0" transform="translate(0 -0.168)" fill="#fff"/>
    <path id="Path_97" data-name="Path 97" d="M.557,17.29A13.294,13.294,0,0,1,7.6,1.476C13.021-1.1,17.99-.234,22.525,3.5a11.967,11.967,0,0,1,3.588,5.336,13.253,13.253,0,0,1,.326,8.533c-.185.6-.137.7.457,1.009,1.319.687,2.651,1.346,3.966,2.041.913.482,6.024,3.092,6.925,3.6a1.888,1.888,0,0,1,1.021,2.468h0a2.012,2.012,0,0,1-2.729,1.032h0c-.053-.029-.105-.061-.157-.1C34,26.412,27.872,23.3,25.96,22.278c-.156-.083-.311-.168-.468-.249-.939-.5-1.076-.482-1.812.32a14.453,14.453,0,0,1-4.312,3.266,12.892,12.892,0,0,1-8.239,1.13A13.3,13.3,0,0,1,1.77,19.963,29.258,29.258,0,0,1,.557,17.29M4.39,16.021a9.39,9.39,0,0,0,11.449,6.726c.164-.043.327-.09.488-.142a9.489,9.489,0,0,0,6.388-11.8h0c-.019-.065-.04-.13-.061-.2a9.657,9.657,0,0,0-12.01-6.26C6.045,5.777,2.775,11.346,4.39,16.021Z" transform="translate(16.39 15.232) rotate(17)" fill="#05c1a4" stroke="#fff" stroke-width="1"/>
    <path id="Path_98" data-name="Path 98" d="M26.1,11.91A10.144,10.144,0,1,1,15.956,22.054,10.144,10.144,0,0,1,26.1,11.91" transform="translate(-0.781 10.212)" fill="#083ecb" stroke="#fff" stroke-width="1"/>
    <path id="Path_99" data-name="Path 99" d="M24.375,29.061,24.314,29a8.034,8.034,0,0,0,.623-1.107,3.158,3.158,0,0,0,.254-1.24,1.081,1.081,0,0,0-1.813-.871c-.014.01-.027.021-.041.03a8.371,8.371,0,0,0-2.628,3.18,2.276,2.276,0,0,0-.184.994.83.83,0,0,0,.881.76.624.624,0,0,0,.573-.984.513.513,0,0,1-.019-.573,8.963,8.963,0,0,1,1.682-2.2,1.239,1.239,0,0,1,.288-.147l.085.058a4.274,4.274,0,0,1-.22.6c-.154.287-.365.543-.511.832a3.964,3.964,0,0,0-.395.994A.873.873,0,0,0,23.5,30.4a.9.9,0,0,0,.136.025,1.694,1.694,0,0,0,.9-.086,8.513,8.513,0,0,0,1.152-.672c.395-.242.781-.5,1.179-.734a1.3,1.3,0,0,1,.358-.081,9.354,9.354,0,0,0-.1,1.005.922.922,0,0,0,1.362.922,6.427,6.427,0,0,0,.652-.307,2.7,2.7,0,0,1,1.967-.386.584.584,0,0,0,.643-.4.543.543,0,0,0-.234-.67,1.427,1.427,0,0,0-.369-.17,2.6,2.6,0,0,0-1.9.234c-.246.108-.492.213-.809.351-.019-.255-.03-.437-.046-.62a1.17,1.17,0,0,0-1.732-1.1,7.28,7.28,0,0,0-1.088.578c-.408.242-.8.513-1.2.773" transform="translate(-0.154 6.86)" fill="#fff"/>
    <rect id="Rectangle_164" data-name="Rectangle 164" width="3.864" height="2.605" transform="translate(17.982 27.893)" fill="#fff"/>
    <rect id="Rectangle_165" data-name="Rectangle 165" width="3.864" height="2.605" transform="translate(28.802 27.893)" fill="#fff"/>
    <rect id="Rectangle_166" data-name="Rectangle 166" width="5.41" height="2.605" transform="translate(22.619 27.893)" fill="#fff"/>
  </g>
</svg>
