<svg id="Known_protocols" data-name="Known protocols" xmlns="http://www.w3.org/2000/svg" xmlns:xlink="http://www.w3.org/1999/xlink" width="60" height="60" viewBox="0 0 60 60">
  <defs>
    <clipPath id="clip-path">
      <rect id="Rectangle_3877" data-name="Rectangle 3877" width="37.961" height="45.315" fill="#1b4965"/>
    </clipPath>
  </defs>
  <rect id="Rectangle_143" data-name="Rectangle 143" width="60" height="60" fill="#fff"/>
  <g id="Group_56904" data-name="Group 56904" transform="translate(11 7)">
    <g id="Group_56900" data-name="Group 56900" clip-path="url(#clip-path)">
      <path id="Path_6241" data-name="Path 6241" d="M4.706.5H33.07a4.205,4.205,0,0,1,4.206,4.206V40.425a4.205,4.205,0,0,1-4.206,4.206H4.706A4.205,4.205,0,0,1,.5,40.425V4.706A4.205,4.205,0,0,1,4.706.5" transform="translate(0.092 0.092)" fill="#1b4965"/>
      <rect id="Rectangle_3872" data-name="Rectangle 3872" width="36.776" height="44.131" rx="3.55" transform="translate(0.592 0.592)" fill="none" stroke="#fff" stroke-width="1"/>
      <rect id="Rectangle_3873" data-name="Rectangle 3873" width="12.659" height="2.199" transform="translate(17.578 11.783)" fill="#fff"/>
      <rect id="Rectangle_3874" data-name="Rectangle 3874" width="8.819" height="2.199" transform="translate(17.578 16.257)" fill="#fff"/>
      <rect id="Rectangle_3875" data-name="Rectangle 3875" width="12.659" height="2.199" transform="translate(17.578 27.227)" fill="#fff"/>
      <rect id="Rectangle_3876" data-name="Rectangle 3876" width="8.819" height="2.199" transform="translate(17.578 31.701)" fill="#fff"/>
      <circle id="Ellipse_667" data-name="Ellipse 667" cx="4.5" cy="4.5" r="4.5" transform="translate(5 10.25)" fill="#f4740b"/>
      <circle id="Ellipse_668" data-name="Ellipse 668" cx="4.5" cy="4.5" r="4.5" transform="translate(5 25.25)" fill="#f4740b"/>
      <path id="Path_6242" data-name="Path 6242" d="M7.413,12.1l1.1.987c.626-.6,1.239-1.175,1.847-1.76s1.205-1.171,1.839-1.787l.687.8-4.375,4.2-1.816-1.7.722-.742" transform="translate(-0.309 2.245)" fill="#fff"/>
      <path id="Path_6243" data-name="Path 6243" d="M7.413,12.1l1.1.987c.626-.6,1.239-1.175,1.847-1.76s1.205-1.171,1.839-1.787l.687.8-4.375,4.2-1.816-1.7.722-.742" transform="translate(-0.309 17.874)" fill="#fff"/>
    </g>
  </g>
</svg>
