<svg id="known_non_API_icon" data-name="known non API_icon" xmlns="http://www.w3.org/2000/svg" xmlns:xlink="http://www.w3.org/1999/xlink" width="60" height="60" viewBox="0 0 60 60">
  <defs>
    <clipPath id="clip-path">
      <rect id="Rectangle_252" data-name="Rectangle 252" width="15.738" height="15.734" transform="translate(0 0)" fill="#fff" stroke="#083ecb" stroke-width="1.3"/>
    </clipPath>
  </defs>
  <g id="Group_3934" data-name="Group 3934" transform="translate(-1077.828 -372)">
    <g id="Group_3936" data-name="Group 3936">
      <rect id="Rectangle_143" data-name="Rectangle 143" width="60" height="60" transform="translate(1077.828 372)" fill="#fff"/>
      <g id="Group_3974" data-name="Group 3974" transform="translate(1087.734 383)">
        <g id="Group_3975" data-name="Group 3975">
          <path id="Path_6054" data-name="Path 6054" d="M.825,30.831A.881.881,0,0,1,0,29.9V20.4a6.339,6.339,0,0,1,6.346-6.332H6.38c1.824.006,3.647,0,5.472.007.737,0,1.476-.035,2.211.01A6.2,6.2,0,0,1,19.2,17.2a5.989,5.989,0,0,1,.882,3.192q0,4.735.006,9.471a.948.948,0,0,1-.906.99h-.074c-.438-.026-17.738.008-18.288-.018" transform="translate(-3.739)" fill="#ff7805"/>
          <path id="Path_6055" data-name="Path 6055" d="M20.918,30.831a.881.881,0,0,1-.823-.934V20.4a6.339,6.339,0,0,1,6.346-6.332h.032c1.824.006,3.647,0,5.472.007.737,0,1.476-.035,2.211.01A6.2,6.2,0,0,1,39.3,17.2a5.989,5.989,0,0,1,.882,3.192q0,4.735.006,9.471a.948.948,0,0,1-.906.99h-.074c-.438-.026-17.738.008-18.288-.018" transform="translate(4.126)" fill="#ff7805"/>
          <path id="Path_6056" data-name="Path 6056" d="M10.04,13.469A6.735,6.735,0,0,1,9.968,0h.019a6.727,6.727,0,0,1,6.782,6.672v.05a6.745,6.745,0,0,1-6.729,6.747" transform="translate(-3.739 -1)" fill="#ff7805"/>
          <path id="Path_6057" data-name="Path 6057" d="M30.133,13.469A6.735,6.735,0,0,1,30.061,0h.019a6.727,6.727,0,0,1,6.782,6.672v.05a6.745,6.745,0,0,1-6.729,6.747" transform="translate(4.126 -1)" fill="#ff7805"/>
          <path id="Path_6058" data-name="Path 6058" d="M7.035,30.835A14.5,14.5,0,1,1,21.528,45.349h-.245A14.517,14.517,0,0,1,7.035,30.835" fill="#083ecb"/>
          <path id="Path_6059" data-name="Path 6059" d="M21.555,15.623h.106a15.223,15.223,0,1,1-.106,30.446h-.29A15.239,15.239,0,0,1,6.308,30.835v-.01a15.243,15.243,0,0,1,15.242-15.2Zm0,29a13.775,13.775,0,0,0,.094-27.546h-.1a13.774,13.774,0,0,0-.257,27.546Z" fill="#fff"/>
          <g id="Group_3978" data-name="Group 3978" transform="translate(13.7 22.982)">
            <g id="Group_3977" data-name="Group 3977" clip-path="url(#clip-path)">
              <path id="Path_6064" data-name="Path 6064" d="M10.033,5.723V2.257A2.168,2.168,0,0,0,7.956,0h0A2.168,2.168,0,0,0,5.7,2.079h0v.154c-.015,1,0,1.988,0,2.982,0,.152-.015.3-.025.507H5.124c-.995,0-1.989-.015-2.982,0A2.114,2.114,0,0,0,0,7.809H0v.135A2.148,2.148,0,0,0,2.208,10.03h.029c.994,0,1.988,0,2.982-.008H5.7v3.532a2.157,2.157,0,0,0,2.134,2.18h0a2.149,2.149,0,0,0,1.055-.264,2.036,2.036,0,0,0,1.13-1.843c.025-1.025,0-2.051.008-3.077,0-.165.017-.331.028-.528h3.41a2.709,2.709,0,0,0,.7-.083,2.139,2.139,0,0,0,1.549-2.4A2.185,2.185,0,0,0,13.653,5.72c-1.01.01-2.02,0-3.035,0Z" fill="#fff" stroke="#083ecb" stroke-width="1.3"/>
            </g>
          </g>
        </g>
      </g>
    </g>
  </g>
</svg>
