<svg id="known_standards_icon" data-name="known standards_icon" xmlns="http://www.w3.org/2000/svg" xmlns:xlink="http://www.w3.org/1999/xlink" width="60" height="60" viewBox="0 0 60 60">
  <defs>
    <clipPath id="clip-path">
      <rect id="Rectangle_253" data-name="Rectangle 253" width="10.756" height="10.826" transform="translate(0 0)" fill="#083ecb"/>
    </clipPath>
    <clipPath id="clip-path-2">
      <rect id="Rectangle_253-2" data-name="Rectangle 253" width="10.756" height="10.826" transform="translate(0 0)" fill="#ff7805"/>
    </clipPath>
  </defs>
  <g id="Group_3934" data-name="Group 3934" transform="translate(-1077.828 -372)">
    <g id="Group_3936" data-name="Group 3936">
      <rect id="Rectangle_143" data-name="Rectangle 143" width="60" height="60" transform="translate(1077.828 372)" fill="#fff"/>
      <path id="Path_6068" data-name="Path 6068" d="M22.4,0c1.682,4.419,3.328,8.776,5,13.178a3.673,3.673,0,0,1-.427.053c-.967,0-1.934-.012-2.9.009a.541.541,0,0,1-.626-.444v-.027c-.1-.376-.268-.733-.373-1.109a.463.463,0,0,0-.507-.4q-2.259.012-4.516,0a.5.5,0,0,0-.553.424c-.156.511-.354,1.009-.526,1.511H13.2c.113-.327.191-.608.293-.879Q15.692,6.476,17.9.637a1.67,1.67,0,0,1,.17-.41A.534.534,0,0,1,18.409,0c1.313,0,2.63,0,3.987,0M22,8.34c-.57-1.668-1.116-3.265-1.656-4.862l-.146.008c-.546,1.6-1.093,3.2-1.655,4.854Z" transform="translate(1082.601 379.273)" fill="#083ecb"/>
      <path id="Path_6069" data-name="Path 6069" d="M30.44,8.745V13.2H27.1V.041c.183-.011.354-.03.51-.03,2.025,0,4.052-.012,6.078,0A4.965,4.965,0,0,1,36.2.63,4.034,4.034,0,0,1,38.26,4.065,4.111,4.111,0,0,1,35.28,8.5a6.034,6.034,0,0,1-1.537.2c-.872.03-1.745.008-2.617.011-.205.007-.4.022-.686.043m0-2.946c1.092,0,2.115.049,3.128-.015a1.389,1.389,0,0,0,1.306-1.464,1.478,1.478,0,0,0-.123-.494,1.348,1.348,0,0,0-1.316-.858c-.9-.022-1.783-.013-2.673-.009a1.251,1.251,0,0,0-.317.09Z" transform="translate(1084.287 379.274)" fill="#083ecb"/>
      <path id="Path_6070" data-name="Path 6070" d="M41.123.016V13.2H37.849V.016c1.073-.022,2.136-.016,3.274,0" transform="translate(1086.115 379.274)" fill="#083ecb"/>
      <path id="Path_6071" data-name="Path 6071" d="M29.058,19.926c3.518,0,7.04-.022,10.56.009a2.344,2.344,0,0,1,2.629,2.015v0a2.278,2.278,0,0,1,.006.573,2.632,2.632,0,0,1-2.376,2.408,9.453,9.453,0,0,1-1.234.022H19.277a8.237,8.237,0,0,1-1.233-.029,2.7,2.7,0,0,1-2.329-2.671,2.467,2.467,0,0,1,2.6-2.321c3.579-.029,7.157-.01,10.746-.01" transform="translate(1082.906 381.688)" fill="#083ecb"/>
      <path id="Path_6072" data-name="Path 6072" d="M28.889,36.941c-3.4,0-6.806.016-10.21-.015a3.354,3.354,0,0,1-1.667-.354,2.253,2.253,0,0,1-1.276-2.321,2.647,2.647,0,0,1,1.982-2.236,3.79,3.79,0,0,1,1.043-.1q10.3,0,20.6-.016a2.874,2.874,0,0,1,2.2.866A2.354,2.354,0,0,1,42.1,35.36a2.223,2.223,0,0,1-1.945,1.557,9.056,9.056,0,0,1-1.233.024Z" transform="translate(1082.907 383.141)" fill="#ff7805"/>
      <g id="Group_3984" data-name="Group 3984" transform="translate(1084.365 398.341)">
        <g id="Group_3979" data-name="Group 3979" transform="translate(-0.001 0)" clip-path="url(#clip-path)">
          <path id="Path_6065" data-name="Path 6065" d="M5.393,10.818c-.207,0-.424,0-.644,0-.181,0-.277-.012-.336-.068a.252.252,0,0,1-.063-.122,1.616,1.616,0,0,1-.033-.221c-.02-.191-.045-.379-.072-.579-.011-.084-.023-.171-.035-.259l-.366-.154L3.291,9.18l-.334.249-.007.006L2.3,9.919l-.088-.068a1.55,1.55,0,0,1-.157-.13c-.293-.289-.573-.57-.909-.908-.136-.137-.2-.206-.21-.279s.051-.149.163-.3.244-.33.376-.5l.157-.21-.384-.908L.05,6.428C.043,6.4.035,6.368.028,6.343A.485.485,0,0,1,0,6.218V6.211C0,5.717,0,5.207,0,4.7c0-.126.011-.2.055-.249a.42.42,0,0,1,.251-.079L.39,4.366C.584,4.34.785,4.314.982,4.3a.46.46,0,0,0,.23-.072.367.367,0,0,0,.138-.2c.03-.093.212-.679.219-.7A5.125,5.125,0,0,0,1.007,2.5L.9,2.355c.024-.036.047-.072.068-.107a1.174,1.174,0,0,1,.147-.2c.277-.288.574-.586.907-.91.112-.109.177-.163.249-.163s.134.041.263.135l.515.366.25.176.842-.326a.137.137,0,0,0,.026-.017l.041-.029c.01-.079.021-.16.032-.244.027-.2.055-.4.075-.611a.54.54,0,0,1,.1-.337C4.478.028,4.572,0,4.755,0c.239,0,.454,0,.657,0,.222,0,.428,0,.628,0a.422.422,0,0,1,.3.081.461.461,0,0,1,.1.3c.022.209.048.421.073.627.011.088.022.18.032.271l.05.026a.716.716,0,0,0,.092.044c.212.078.428.156.637.232l.171.062.209-.152L8.2,1.136c.14-.1.224-.163.3-.163s.14.057.271.186c.306.3.611.607.908.909.209.214.213.271.035.516l-.017.023c-.14.192-.285.39-.437.579a.308.308,0,0,0-.075.167.331.331,0,0,0,.041.178,3.545,3.545,0,0,1,.217.522.325.325,0,0,0,.126.183.434.434,0,0,0,.209.064c.225.021.458.048.71.081a.381.381,0,0,1,.217.072.285.285,0,0,1,.055.21c.006.4,0,.8,0,1.231v.529l-.587.089h0l-.648.1c-.03.069-.06.139-.089.208-.072.168-.146.341-.224.511a.326.326,0,0,0,.064.379c.086.1.167.213.244.318s.155.208.237.309a.234.234,0,0,1,.018.33.253.253,0,0,1-.035.032c-.288.289-.57.573-.867.874l-.345.349a2.237,2.237,0,0,1-.576-.382,2.4,2.4,0,0,0-.5-.346l-.382.163-.515.217c-.011.092-.024.185-.035.275-.025.191-.05.389-.071.583a.544.544,0,0,1-.1.326c-.057.056-.156.067-.318.068l-.641,0m-.011-8.6a3.225,3.225,0,0,0-.644.065A3.192,3.192,0,0,0,2.249,4.77a3.224,3.224,0,0,0,0,1.287A3.191,3.191,0,0,0,4.732,8.54a3.224,3.224,0,0,0,1.287,0A3.192,3.192,0,0,0,8.5,6.057a3.224,3.224,0,0,0,0-1.287A3.187,3.187,0,0,0,5.376,2.221" transform="translate(0 0)" fill="#083ecb"/>
        </g>
      </g>
      <g id="Group_3985" data-name="Group 3985" transform="translate(1084.365 412.154)">
        <g id="Group_3979-2" data-name="Group 3979" transform="translate(-0.001 0)" clip-path="url(#clip-path-2)">
          <path id="Path_6065-2" data-name="Path 6065" d="M5.393,10.818c-.207,0-.424,0-.644,0-.181,0-.277-.012-.336-.068a.252.252,0,0,1-.063-.122,1.616,1.616,0,0,1-.033-.221c-.02-.191-.045-.379-.072-.579-.011-.084-.023-.171-.035-.259l-.366-.154L3.291,9.18l-.334.249-.007.006L2.3,9.919l-.088-.068a1.55,1.55,0,0,1-.157-.13c-.293-.289-.573-.57-.909-.908-.136-.137-.2-.206-.21-.279s.051-.149.163-.3.244-.33.376-.5l.157-.21-.384-.908L.05,6.428C.043,6.4.035,6.368.028,6.343A.485.485,0,0,1,0,6.218V6.211C0,5.717,0,5.207,0,4.7c0-.126.011-.2.055-.249a.42.42,0,0,1,.251-.079L.39,4.366C.584,4.34.785,4.314.982,4.3a.46.46,0,0,0,.23-.072.367.367,0,0,0,.138-.2c.03-.093.212-.679.219-.7A5.125,5.125,0,0,0,1.007,2.5L.9,2.355c.024-.036.047-.072.068-.107a1.174,1.174,0,0,1,.147-.2c.277-.288.574-.586.907-.91.112-.109.177-.163.249-.163s.134.041.263.135l.515.366.25.176.842-.326a.137.137,0,0,0,.026-.017l.041-.029c.01-.079.021-.16.032-.244.027-.2.055-.4.075-.611a.54.54,0,0,1,.1-.337C4.478.028,4.572,0,4.755,0c.239,0,.454,0,.657,0,.222,0,.428,0,.628,0a.422.422,0,0,1,.3.081.461.461,0,0,1,.1.3c.022.209.048.421.073.627.011.088.022.18.032.271l.05.026a.716.716,0,0,0,.092.044c.212.078.428.156.637.232l.171.062.209-.152L8.2,1.136c.14-.1.224-.163.3-.163s.14.057.271.186c.306.3.611.607.908.909.209.214.213.271.035.516l-.017.023c-.14.192-.285.39-.437.579a.308.308,0,0,0-.075.167.331.331,0,0,0,.041.178,3.545,3.545,0,0,1,.217.522.325.325,0,0,0,.126.183.434.434,0,0,0,.209.064c.225.021.458.048.71.081a.381.381,0,0,1,.217.072.285.285,0,0,1,.055.21c.006.4,0,.8,0,1.231v.529l-.587.089h0l-.648.1c-.03.069-.06.139-.089.208-.072.168-.146.341-.224.511a.326.326,0,0,0,.064.379c.086.1.167.213.244.318s.155.208.237.309a.234.234,0,0,1,.018.33.253.253,0,0,1-.035.032c-.288.289-.57.573-.867.874l-.345.349a2.237,2.237,0,0,1-.576-.382,2.4,2.4,0,0,0-.5-.346l-.382.163-.515.217c-.011.092-.024.185-.035.275-.025.191-.05.389-.071.583a.544.544,0,0,1-.1.326c-.057.056-.156.067-.318.068l-.641,0m-.011-8.6a3.225,3.225,0,0,0-.644.065A3.192,3.192,0,0,0,2.249,4.77a3.224,3.224,0,0,0,0,1.287A3.191,3.191,0,0,0,4.732,8.54a3.224,3.224,0,0,0,1.287,0A3.192,3.192,0,0,0,8.5,6.057a3.224,3.224,0,0,0,0-1.287A3.187,3.187,0,0,0,5.376,2.221" transform="translate(0 0)" fill="#ff7805"/>
        </g>
      </g>
    </g>
  </g>
</svg>
