<svg id="last_funding_icon" data-name="last funding_icon" xmlns="http://www.w3.org/2000/svg" xmlns:xlink="http://www.w3.org/1999/xlink" width="60" height="60" viewBox="0 0 60 60">
  <defs>
    <clipPath id="clip-path">
      <rect id="Rectangle_160" data-name="Rectangle 160" width="49.135" height="49.195" fill="none"/>
    </clipPath>
  </defs>
  <g id="Group_3889" data-name="Group 3889" transform="translate(-1020.828 -372)">
    <rect id="Rectangle_143" data-name="Rectangle 143" width="60" height="60" transform="translate(1020.828 372)" fill="#fff"/>
    <g id="Group_3900" data-name="Group 3900" transform="translate(-505.099 -281.853)">
      <g id="Group_3900-2" data-name="Group 3900" transform="translate(1531 664)">
        <g id="Group_3896" data-name="Group 3896" transform="translate(0 0)" clip-path="url(#clip-path)">
          <path id="Path_84" data-name="Path 84" d="M29.2,5.809c0,.541-.012,1.038,0,1.536a3.027,3.027,0,0,0,6.028.412c.04-.466.019-.937.03-1.4,0-.174.016-.347.024-.512,1.925-.255,3.335.083,4.291,1.813a3.436,3.436,0,0,1,.383,1.683q0,5.7,0,11.392c0,.141-.021.282-.035.452H36.857V15.126H3.151c-.012.2-.032.367-.032.54q0,10.082,0,20.166c0,.635.02.654.651.654h17.76v3.088c-.2.011-.368.028-.541.028q-4.581,0-9.162,0-4.167,0-8.335,0A3.346,3.346,0,0,1,.928,38.546a3.227,3.227,0,0,1-.921-2.278Q.006,22.744,0,9.218A3.453,3.453,0,0,1,3.491,5.77c.35.015.7,0,1.117,0,0,.541,0,1.02,0,1.5a3.074,3.074,0,1,0,6.147.063c.014-.5,0-.994,0-1.526Z" transform="translate(0 0.35)" fill="#083ecb"/>
          <path id="Path_85" data-name="Path 85" d="M47.728,35.463A12.283,12.283,0,1,1,35.539,23.155,12.279,12.279,0,0,1,47.728,35.463m-3.114,0A9.166,9.166,0,1,0,35.4,44.676a9.186,9.186,0,0,0,9.213-9.209" transform="translate(1.406 1.405)" fill="#083ecb"/>
          <rect id="Rectangle_155" data-name="Rectangle 155" width="6.161" height="6.108" transform="translate(15.367 18.472)" fill="#083ecb"/>
          <rect id="Rectangle_156" data-name="Rectangle 156" width="6.134" height="6.108" transform="translate(24.593 18.467)" fill="#083ecb"/>
          <rect id="Rectangle_157" data-name="Rectangle 157" width="6.119" height="6.114" transform="translate(6.162 18.472)" fill="#083ecb"/>
          <rect id="Rectangle_158" data-name="Rectangle 158" width="6.163" height="6.083" transform="translate(15.365 27.682)" fill="#083ecb"/>
          <rect id="Rectangle_159" data-name="Rectangle 159" width="6.105" height="6.092" transform="translate(6.169 27.685)" fill="#083ecb"/>
          <path id="Path_86" data-name="Path 86" d="M5.784,4.612c0-1,0-2,0-3A1.561,1.561,0,0,1,7.266,0,1.528,1.528,0,0,1,8.885,1.517c.033.9.008,1.808.011,2.713,0,1.163.01,2.326-.005,3.489A1.474,1.474,0,0,1,7.9,9.137a1.568,1.568,0,0,1-1.732-.41,1.424,1.424,0,0,1-.39-1.062q0-1.526,0-3.053h0" transform="translate(0.351 0)" fill="#083ecb"/>
          <path id="Path_87" data-name="Path 87" d="M32.057,4.667c0,.983-.023,1.968.006,2.951a1.542,1.542,0,0,1-1.554,1.62,1.5,1.5,0,0,1-1.562-1.559q-.035-3.047,0-6.095A1.541,1.541,0,0,1,30.255.016a1.525,1.525,0,0,1,1.708,1.036,2.355,2.355,0,0,1,.09.712c.01.968,0,1.936,0,2.9" transform="translate(1.756 0)" fill="#083ecb"/>
        </g>
      </g>
      <g id="Group_3901" data-name="Group 3901" transform="translate(1551.772 684.772)">
        <g id="Ellipse_8" data-name="Ellipse 8" transform="translate(0.082 0.081)" fill="#05c1a4" stroke="#fff" stroke-width="2">
          <circle cx="14.5" cy="14.5" r="14.5" stroke="none"/>
          <circle cx="14.5" cy="14.5" r="13.5" fill="none"/>
        </g>
        <path id="Path_83" data-name="Path 83" d="M22.444,26.579c.057-.017.089-.028.121-.034s.079-.016.12-.022a5.225,5.225,0,0,0,2.193-.811,3.974,3.974,0,0,0,1.772-2.564,5.671,5.671,0,0,0,.061-1.863,3.6,3.6,0,0,0-.962-2.107,4.7,4.7,0,0,0-2.107-1.263q-1.175-.359-2.352-.733a2.555,2.555,0,0,1-1.366-.981,2.147,2.147,0,0,1,.434-3l.036-.027A1.968,1.968,0,0,1,22.662,13a2.069,2.069,0,0,1,1,1.39c.055.232.126.461.2.689a1.067,1.067,0,0,0,.861.754,1.93,1.93,0,0,0,.427.026,1.32,1.32,0,0,0,1.27-1.339,2.365,2.365,0,0,0-.188-.855,4.743,4.743,0,0,0-3.049-2.785c-.235-.079-.481-.128-.748-.2v-.575a.849.849,0,0,0-1.651-.263,1.673,1.673,0,0,0-.052.383,2.1,2.1,0,0,1-.027.467c-.066.016-.124.034-.184.045a4.337,4.337,0,0,0-1.828.8,4.219,4.219,0,0,0-1.71,2.4,5.368,5.368,0,0,0-.043,2.385,3.323,3.323,0,0,0,.535,1.282,5.241,5.241,0,0,0,2.038,1.655,14.768,14.768,0,0,0,2.518.915,4.082,4.082,0,0,1,1.39.667,1.554,1.554,0,0,1,.655,1.048,3.41,3.41,0,0,1,.021.736,1.756,1.756,0,0,1-.427,1,2.477,2.477,0,0,1-2.259.866,2.577,2.577,0,0,1-1.329-.525,2.805,2.805,0,0,1-.8-1.1c-.1-.244-.2-.495-.32-.735a1.644,1.644,0,0,0-.233-.382,1.368,1.368,0,0,0-2.285,1.3,3.582,3.582,0,0,0,.564,1.311,4.373,4.373,0,0,0,1.809,1.636,6.618,6.618,0,0,0,1.728.511c.182.031.183.029.186.22v.409a.854.854,0,0,0,.9.808h0a.7.7,0,0,0,.1-.011.841.841,0,0,0,.7-.855c.006-.179.005-.347.005-.516" transform="translate(-6.811 -4.035)" fill="#fff"/>
      </g>
    </g>
  </g>
</svg>
