<svg id="money_raised_icon" data-name="money raised_icon" xmlns="http://www.w3.org/2000/svg" xmlns:xlink="http://www.w3.org/1999/xlink" width="60" height="60" viewBox="0 0 60 60">
  <defs>
    <clipPath id="clip-path">
      <rect id="Rectangle_172" data-name="Rectangle 172" width="53.535" height="56.479" fill="none"/>
    </clipPath>
  </defs>
  <g id="Group_3889" data-name="Group 3889" transform="translate(-1020.828 -372)">
    <rect id="Rectangle_143" data-name="Rectangle 143" width="60" height="60" transform="translate(1020.828 372)" fill="#fff"/>
    <g id="Group_3918" data-name="Group 3918" transform="translate(1026.294 373.76)">
      <rect id="Rectangle_167" data-name="Rectangle 167" width="10.831" height="13.662" transform="translate(1.747 42.209)" fill="#083ecb" stroke="#083ecb" stroke-width="1"/>
      <g id="Group_3909" data-name="Group 3909" transform="translate(0 0)">
        <g id="Group_3919" data-name="Group 3919">
          <rect id="Rectangle_168" data-name="Rectangle 168" width="10.831" height="13.662" transform="translate(1.747 42.209)" fill="none" stroke="#05c1a4" stroke-width="1"/>
        </g>
      </g>
      <rect id="Rectangle_170" data-name="Rectangle 170" width="10.832" height="13.662" transform="translate(18.142 42.209)" fill="#083ecb" stroke="#083ecb" stroke-width="1"/>
      <g id="Group_3911" data-name="Group 3911" transform="translate(0 0)">
        <g id="Group_3910" data-name="Group 3910" clip-path="url(#clip-path)">
          <rect id="Rectangle_171" data-name="Rectangle 171" width="10.832" height="13.662" transform="translate(18.142 42.209)" fill="none" stroke="#05c1a4" stroke-width="1"/>
        </g>
      </g>
      <rect id="Rectangle_173" data-name="Rectangle 173" width="10.833" height="13.662" transform="translate(34.538 42.209)" fill="#083ecb" stroke="#083ecb" stroke-width="1"/>
      <g id="Group_3913" data-name="Group 3913" transform="translate(0 0)">
        <g id="Group_3912" data-name="Group 3912" clip-path="url(#clip-path)">
          <rect id="Rectangle_174" data-name="Rectangle 174" width="10.832" height="13.662" transform="translate(34.538 42.209)" fill="none" stroke="#05c1a4" stroke-width="1"/>
        </g>
      </g>
      <rect id="Rectangle_176" data-name="Rectangle 176" width="10.831" height="10.009" transform="translate(1.747 34.457)" fill="#05c1a4"/>
      <g id="Group_3915" data-name="Group 3915" transform="translate(0 0)">
        <g id="Group_3914" data-name="Group 3914" clip-path="url(#clip-path)">
          <rect id="Rectangle_177" data-name="Rectangle 177" width="10.831" height="10.009" transform="translate(1.747 34.457)" fill="none" stroke="#05c1a4" stroke-width="1"/>
        </g>
      </g>
      <rect id="Rectangle_179" data-name="Rectangle 179" width="10.832" height="16.722" transform="translate(18.142 28.453)" fill="#05c1a4"/>
      <rect id="Rectangle_180" data-name="Rectangle 180" width="10.832" height="16.722" transform="translate(18.142 28.453)" fill="none" stroke="#05c1a4" stroke-width="1"/>
      <rect id="Rectangle_181" data-name="Rectangle 181" width="10.832" height="22.757" transform="translate(34.538 22.421)" fill="#05c1a4"/>
      <rect id="Rectangle_182" data-name="Rectangle 182" width="10.832" height="22.757" transform="translate(34.538 22.421)" fill="none" stroke="#05c1a4" stroke-width="1"/>
      <g id="Group_3917" data-name="Group 3917" transform="translate(0 0)">
        <g id="Group_3916" data-name="Group 3916" clip-path="url(#clip-path)">
          <path id="Path_100" data-name="Path 100" d="M34.144,13.078l.091-.027c.024,0,.057-.012.091-.017a3.961,3.961,0,0,0,1.656-.608,3.007,3.007,0,0,0,1.337-1.935,4.308,4.308,0,0,0,.046-1.407,2.727,2.727,0,0,0-.729-1.592,3.527,3.527,0,0,0-1.592-.954q-.888-.272-1.772-.554a1.932,1.932,0,0,1-1.032-.741,1.621,1.621,0,0,1,.329-2.269l.027-.018a1.485,1.485,0,0,1,1.713-.131,1.561,1.561,0,0,1,.757,1.047c.043.175.1.349.152.52a.8.8,0,0,0,.65.57,1.42,1.42,0,0,0,.321.019,1,1,0,0,0,.959-1.012,1.754,1.754,0,0,0-.142-.649,3.581,3.581,0,0,0-2.3-2.1c-.179-.057-.365-.1-.561-.148V.636A.64.64,0,0,0,32.9.438a1.3,1.3,0,0,0-.04.29,1.63,1.63,0,0,1-.019.352c-.05.012-.095.026-.139.034a3.305,3.305,0,0,0-1.382.608,3.179,3.179,0,0,0-1.29,1.817,4.046,4.046,0,0,0-.032,1.8,2.532,2.532,0,0,0,.4.972,3.956,3.956,0,0,0,1.54,1.25,11.272,11.272,0,0,0,1.9.691,3.056,3.056,0,0,1,1.046.5,1.169,1.169,0,0,1,.5.792,2.436,2.436,0,0,1,.016.557,1.322,1.322,0,0,1-.324.758,1.872,1.872,0,0,1-1.7.654,1.951,1.951,0,0,1-1-.4,2.118,2.118,0,0,1-.608-.829c-.083-.185-.153-.374-.243-.555a1.2,1.2,0,0,0-.176-.287,1.032,1.032,0,0,0-1.726.984,2.72,2.72,0,0,0,.425.99,3.3,3.3,0,0,0,1.366,1.237,5,5,0,0,0,1.306.385c.137.023.137.022.14.166v.311a.643.643,0,0,0,.676.608.62.62,0,0,0,.081-.01.635.635,0,0,0,.53-.648c0-.141,0-.271,0-.4" transform="translate(6.366 0.001)" fill="#fff"/>
          <path id="Path_101" data-name="Path 101" d="M18.368,14.218l-1.559-.727a4.074,4.074,0,0,1-.39-.2,1.355,1.355,0,0,1-.736-1.481,1.391,1.391,0,0,1,1.287-1.148,1.629,1.629,0,0,1,.791.146c1.817.857,2.828,1.344,4.656,2.185a1.5,1.5,0,0,1,.954,1.894,1.575,1.575,0,0,1-.135.3c-.283.646-.6,1.277-.894,1.914a29.194,29.194,0,0,1-1.578,2.833,1.383,1.383,0,0,1-1.943.2,1.354,1.354,0,0,1-.395-1.666,17.314,17.314,0,0,1,.909-1.593c-.207.066-.331.1-.456.145C14.04,18.783,6.858,22.237,2.022,24a1.719,1.719,0,0,1-.793.117S.076,23.7.017,22.865a1.282,1.282,0,0,1,.932-1.442c4.8-1.739,11.933-5.175,16.723-6.926.208-.072.407-.163.7-.278" transform="translate(0 2.293)" fill="#05c1a4"/>
          <path id="Path_102" data-name="Path 102" d="M22.307,13.507A12.759,12.759,0,1,1,35.059,26.273h-.22A12.767,12.767,0,0,1,22.307,13.507" transform="translate(4.799 0.162)" fill="#05c1a4"/>
          <path id="Path_103" data-name="Path 103" d="M35.241,0h.1a13.678,13.678,0,1,1-13.8,13.67V13.66A13.691,13.691,0,0,1,35.241,0Zm0,25.506a11.825,11.825,0,0,0,.081-23.648h-.085a11.825,11.825,0,0,0-.219,23.647Z" transform="translate(4.635 0)" fill="#fff"/>
          <path id="Path_104" data-name="Path 104" d="M34.51,20.531c.055-.016.085-.027.122-.034s.073-.015.122-.021a5.049,5.049,0,0,0,2.113-.783,3.84,3.84,0,0,0,1.708-2.467,5.436,5.436,0,0,0,.058-1.8A3.479,3.479,0,0,0,37.7,13.4a4.519,4.519,0,0,0-2.032-1.215q-1.134-.346-2.26-.707a2.459,2.459,0,0,1-1.317-.945A2.066,2.066,0,0,1,32.51,7.64l0,0,.034-.024a1.893,1.893,0,0,1,2.187-.166A1.987,1.987,0,0,1,35.7,8.783c.055.224.122.445.193.663a1.024,1.024,0,0,0,.83.729,1.847,1.847,0,0,0,.41.024,1.271,1.271,0,0,0,1.222-1.292,2.231,2.231,0,0,0-.181-.828A4.565,4.565,0,0,0,35.238,5.4c-.227-.073-.464-.122-.716-.19V4.654A.818.818,0,0,0,32.932,4.4a1.606,1.606,0,0,0-.05.365,1.988,1.988,0,0,1-.026.45c-.063.015-.122.033-.177.044a4.212,4.212,0,0,0-1.763.772,4.06,4.06,0,0,0-1.647,2.317,5.171,5.171,0,0,0-.041,2.3,3.222,3.222,0,0,0,.515,1.233,5.036,5.036,0,0,0,1.965,1.6,14.271,14.271,0,0,0,2.43.882A3.9,3.9,0,0,1,35.475,15a1.5,1.5,0,0,1,.632,1.011,3.08,3.08,0,0,1,.021.71,1.69,1.69,0,0,1-.414.972,2.384,2.384,0,0,1-2.178.834,2.48,2.48,0,0,1-1.278-.506,2.707,2.707,0,0,1-.772-1.057c-.1-.236-.2-.478-.305-.708a1.584,1.584,0,0,0-.225-.365,1.317,1.317,0,0,0-2.2,1.256,3.463,3.463,0,0,0,.543,1.264,4.206,4.206,0,0,0,1.743,1.58,6.376,6.376,0,0,0,1.667.486c.175.029.175.028.177.211v.4a.821.821,0,0,0,.86.78h0a.613.613,0,0,0,.1-.012.81.81,0,0,0,.676-.828c-.016-.165-.016-.333-.016-.495" transform="translate(6.178 0.829)" fill="#fff"/>
        </g>
      </g>
    </g>
  </g>
</svg>
