<svg id="patents_icon" xmlns="http://www.w3.org/2000/svg" xmlns:xlink="http://www.w3.org/1999/xlink" width="60" height="60" viewBox="0 0 60 60">
  <defs>
    <clipPath id="clip-path">
      <rect id="Rectangle_245" data-name="Rectangle 245" width="49.991" height="42.062" fill="none"/>
    </clipPath>
  </defs>
  <g id="Group_3889" data-name="Group 3889" transform="translate(-1020.828 -372)">
    <rect id="Rectangle_143" data-name="Rectangle 143" width="60" height="60" transform="translate(1020.828 372)" fill="#fff"/>
    <g id="Group_3966" data-name="Group 3966" transform="translate(1021.566 382.264)">
      <g id="Group_3966-2" data-name="Group 3966" transform="translate(4.271 5.801)" clip-path="url(#clip-path)">
        <path id="Path_6043" data-name="Path 6043" d="M4.235,0H42.763C45.1,0,47,2.178,47,4.865v21.19c0,2.687-1.9,4.865-4.235,4.865H4.235C1.9,30.921,0,28.742,0,26.055V4.865C0,2.178,1.9,0,4.235,0" transform="translate(0 0)" fill="#083ecb"/>
        <path id="Path_6044" data-name="Path 6044" d="M28.269,28.4A12.367,12.367,0,0,1,26.9,10.964q.31-.362.647-.7A12.338,12.338,0,0,1,45.471,27.2q-.415.47-.871.9L48.583,38.63l-4.894-.847L40.6,41.669l-3.95-10.361c-.462.116-.5.453-.6.715Q34.622,35.76,33.21,39.5c-.252.664-.508,1.327-.8,2.1-.234-.246-.41-.406-.555-.589-.72-.9-1.446-1.8-2.141-2.73a.862.862,0,0,0-1.027-.408c-1.229.282-2.482.469-3.726.689a4.111,4.111,0,0,1-.536,0ZM36.3,24.375a5.366,5.366,0,0,0,5.39-5.34v-.057a5.345,5.345,0,0,0-5.24-5.448h-.2A5.4,5.4,0,0,0,30.819,18.9v.176A5.408,5.408,0,0,0,36.3,24.37Z" transform="translate(1.408 0.393)" fill="#ff7805" stroke="#fff" stroke-width="2"/>
        <path id="Path_6045" data-name="Path 6045" d="M13.149,11.89c2.212,0,4.425-.014,6.638.005a1.483,1.483,0,0,1,1.653,1.29v.01a1.541,1.541,0,0,1,0,.37,1.678,1.678,0,0,1-1.494,1.554,5.721,5.721,0,0,1-.774.014H7a4.962,4.962,0,0,1-.773-.019A1.726,1.726,0,0,1,4.767,13.39a1.563,1.563,0,0,1,1.625-1.5H6.4c2.251-.015,4.5,0,6.751,0" transform="translate(0.28 0.89)" fill="#fff"/>
        <path id="Path_6046" data-name="Path 6046" d="M12.717,17.688c2.1,0,4.2-.014,6.295,0A1.4,1.4,0,0,1,20.578,18.9v.007a1.466,1.466,0,0,1,0,.347,1.588,1.588,0,0,1-1.417,1.461,5.476,5.476,0,0,1-.734.014H6.888a4.837,4.837,0,0,1-.733-.018,1.628,1.628,0,0,1-1.388-1.62,1.481,1.481,0,0,1,1.547-1.407c2.135-.011,4.269,0,6.4,0" transform="translate(0.28 2.77)" fill="#fff"/>
        <path id="Path_6047" data-name="Path 6047" d="M14.334,11.89c2.212,0,4.425-.014,6.638.005a1.483,1.483,0,0,1,1.653,1.29v.01a1.541,1.541,0,0,1,0,.37,1.678,1.678,0,0,1-1.494,1.554,5.721,5.721,0,0,1-.774.014H8.188a4.962,4.962,0,0,1-.773-.019A1.726,1.726,0,0,1,5.952,13.39a1.563,1.563,0,0,1,1.625-1.5h.005c2.251-.015,4.5,0,6.751,0" transform="translate(0.35 0.89)" fill="#fff"/>
        <path id="Path_6048" data-name="Path 6048" d="M14.715,17.688c2.1,0,4.2-.014,6.295,0A1.4,1.4,0,0,1,22.576,18.9v.007a1.465,1.465,0,0,1,0,.347,1.588,1.588,0,0,1-1.417,1.461,5.476,5.476,0,0,1-.734.014H8.886a4.837,4.837,0,0,1-.733-.018,1.628,1.628,0,0,1-1.388-1.62,1.481,1.481,0,0,1,1.547-1.407c2.135-.011,4.269,0,6.4,0" transform="translate(0.398 2.77)" fill="#fff"/>
        <path id="Path_6049" data-name="Path 6049" d="M14.85,4.169c2.7,0,5.4-.017,8.1.006A1.781,1.781,0,0,1,24.961,6.16a2.019,2.019,0,0,1-1.822,1.847,7.193,7.193,0,0,1-.943.017H7.348A6.379,6.379,0,0,1,6.4,8,2.069,2.069,0,0,1,4.618,5.954a1.888,1.888,0,0,1,1.991-1.78c2.751-.019,5.5,0,8.242,0" transform="translate(0.272 0.245)" fill="#fff"/>
        <path id="Path_6050" data-name="Path 6050" d="M19.13,4.169c2.7,0,5.4-.017,8.1.006A1.781,1.781,0,0,1,29.241,6.16a2.019,2.019,0,0,1-1.822,1.847,7.192,7.192,0,0,1-.943.017H11.628A6.379,6.379,0,0,1,10.684,8,2.069,2.069,0,0,1,8.9,5.954a1.888,1.888,0,0,1,1.991-1.78c2.751-.019,5.5,0,8.242,0" transform="translate(0.523 0.245)" fill="#fff"/>
        <circle id="Ellipse_650" data-name="Ellipse 650" cx="6.5" cy="6.5" r="6.5" transform="translate(30.99 12.935)" fill="#fff"/>
      </g>
    </g>
  </g>
</svg>
