<svg id="pricing_icon" xmlns="http://www.w3.org/2000/svg" xmlns:xlink="http://www.w3.org/1999/xlink" width="60" height="60" viewBox="0 0 60 60">
  <defs>
    <clipPath id="clip-path">
      <rect id="Rectangle_253" data-name="Rectangle 253" width="46.307" height="46.608" transform="translate(0 0)" fill="none"/>
    </clipPath>
  </defs>
  <g id="Group_5408" data-name="Group 5408" transform="translate(-1025 -372)">
    <g id="Group_3889" data-name="Group 3889" transform="translate(4.172)">
      <rect id="Rectangle_143" data-name="Rectangle 143" width="60" height="60" transform="translate(1020.828 372)" fill="#fff"/>
    </g>
  </g>
  <g id="Group_5421" data-name="Group 5421" transform="translate(-1329.339 -1122.633)">
    <g id="Group_5420" data-name="Group 5420" transform="translate(1336.339 1129.632)">
      <g id="Group_5415" data-name="Group 5415" transform="translate(0 0)">
        <g id="Group_3979" data-name="Group 3979" clip-path="url(#clip-path)">
          <path id="Path_6065" data-name="Path 6065" d="M23.219,46.576c-.891,0-1.825,0-2.773-.008-.78,0-1.194-.051-1.446-.294a1.085,1.085,0,0,1-.27-.526,6.955,6.955,0,0,1-.143-.95c-.086-.822-.195-1.633-.31-2.492-.049-.361-.1-.736-.149-1.115l-1.578-.665-2.378-1-1.438,1.071-.031.024L9.9,42.7q-.2-.155-.379-.291a6.674,6.674,0,0,1-.678-.559C7.578,40.609,6.373,39.4,4.928,37.943c-.587-.59-.876-.888-.906-1.2s.219-.642.7-1.3c.525-.715,1.052-1.422,1.617-2.169l.675-.9L5.364,28.464.218,27.676c-.032-.137-.065-.258-.1-.367a2.088,2.088,0,0,1-.105-.538v-.03c-.014-2.126-.03-4.324,0-6.486,0-.541.046-.876.235-1.072a1.808,1.808,0,0,1,1.079-.342l.351-.046c.834-.11,1.7-.224,2.549-.292a1.979,1.979,0,0,0,.992-.31,1.579,1.579,0,0,0,.593-.845c.131-.4.913-2.924.944-3.031a22.063,22.063,0,0,0-2.424-3.561l-.461-.617c.1-.154.2-.31.294-.463A5.053,5.053,0,0,1,4.8,8.8C5.994,7.56,7.271,6.278,8.707,4.881c.482-.47.764-.7,1.073-.7.28,0,.576.175,1.132.583.734.526,1.486,1.061,2.215,1.578L14.2,7.1l3.623-1.4a.589.589,0,0,0,.112-.072c.04-.03.1-.068.175-.127.044-.342.091-.687.14-1.052.116-.853.237-1.737.323-2.629A2.323,2.323,0,0,1,19.025.368c.254-.248.66-.351,1.449-.351C21.5.007,22.429,0,23.3,0c.957,0,1.842,0,2.7.021A1.815,1.815,0,0,1,27.3.372a1.986,1.986,0,0,1,.44,1.279c.095.9.207,1.812.314,2.7.047.381.095.775.14,1.166.077.038.148.075.216.112a3.083,3.083,0,0,0,.4.189c.913.337,1.844.673,2.743,1l.734.267.9-.656c.69-.5,1.4-1.02,2.1-1.534.6-.445.963-.7,1.278-.7s.6.244,1.167.8c1.317,1.3,2.629,2.612,3.909,3.914.9.92.917,1.167.15,2.219l-.073.1c-.6.825-1.227,1.681-1.881,2.491a1.326,1.326,0,0,0-.324.717,1.427,1.427,0,0,0,.175.768,15.262,15.262,0,0,1,.933,2.247,1.4,1.4,0,0,0,.544.789,1.87,1.87,0,0,0,.9.274c.969.09,1.97.205,3.057.351a1.639,1.639,0,0,1,.936.312,1.229,1.229,0,0,1,.235.9c.024,1.734.019,3.464.015,5.3v2.279l-2.529.383h-.021l-2.789.422c-.13.3-.26.6-.384.894-.308.722-.629,1.468-.963,2.2a1.4,1.4,0,0,0,.277,1.633c.368.443.719.915,1.052,1.371s.667.9,1.022,1.329a1.006,1.006,0,0,1,.079,1.42,1.089,1.089,0,0,1-.151.138c-1.24,1.243-2.454,2.466-3.734,3.763l-1.484,1.5A9.629,9.629,0,0,1,34.2,41.056a10.319,10.319,0,0,0-2.149-1.488l-1.646.7-2.217.933c-.049.4-.1.8-.152,1.185-.107.824-.217,1.676-.307,2.512a2.344,2.344,0,0,1-.41,1.4c-.244.242-.673.289-1.368.294-.89,0-1.818.013-2.759.013M23.145,9.563a13.886,13.886,0,0,0-2.771.278A13.741,13.741,0,0,0,9.682,20.534a13.881,13.881,0,0,0,0,5.541A13.739,13.739,0,0,0,20.374,36.767a13.88,13.88,0,0,0,5.541,0A13.741,13.741,0,0,0,36.607,26.075a13.881,13.881,0,0,0,0-5.541A13.721,13.721,0,0,0,23.145,9.563" transform="translate(0 0)" fill="#083ecb"/>
        </g>
      </g>
      <g id="Ellipse_651" data-name="Ellipse 651" transform="translate(6.898 7.52)" fill="#ff7805" stroke="#fff" stroke-width="2">
        <circle cx="16.095" cy="16.095" r="16.095" stroke="none"/>
        <circle cx="16.095" cy="16.095" r="15.095" fill="none"/>
      </g>
      <path id="Path_6100" data-name="Path 6100" d="M46.318,39.331c.072-.02.111-.033.15-.042s.1-.02.149-.027a6.557,6.557,0,0,0,2.735-1,4.881,4.881,0,0,0,2.2-3.146,6.855,6.855,0,0,0,.077-2.285,4.392,4.392,0,0,0-1.2-2.586,5.858,5.858,0,0,0-2.618-1.55q-1.464-.44-2.92-.9a3.165,3.165,0,0,1-1.7-1.208,2.609,2.609,0,0,1,.5-3.654h0l.083-.06a2.472,2.472,0,0,1,2.819-.212,2.541,2.541,0,0,1,1.246,1.7c.069.284.157.568.251.847a1.322,1.322,0,0,0,1.07.924,2.438,2.438,0,0,0,.528.031,1.63,1.63,0,0,0,1.578-1.641,2.817,2.817,0,0,0-.234-1.054,5.865,5.865,0,0,0-3.792-3.423c-.293-.1-.6-.157-.924-.241v-.7a1.057,1.057,0,0,0-2.051-.323,2.176,2.176,0,0,0-.064.47,2.472,2.472,0,0,1-.033.572c-.082.019-.154.041-.229.054a5.5,5.5,0,0,0-2.275.983,5.175,5.175,0,0,0-2.125,2.948,6.5,6.5,0,0,0-.053,2.929,4.072,4.072,0,0,0,.667,1.569,6.489,6.489,0,0,0,2.535,2.031,18.7,18.7,0,0,0,3.132,1.122,5.083,5.083,0,0,1,1.723.821,1.9,1.9,0,0,1,.821,1.287,3.954,3.954,0,0,1,.026.906,2.133,2.133,0,0,1-.535,1.23,3.106,3.106,0,0,1-2.81,1.06,3.245,3.245,0,0,1-1.65-.642,3.445,3.445,0,0,1-1-1.347c-.137-.3-.253-.6-.395-.906a1.93,1.93,0,0,0-.29-.469,1.71,1.71,0,0,0-1.8-.366A1.672,1.672,0,0,0,38.876,35a4.366,4.366,0,0,0,.7,1.611,5.41,5.41,0,0,0,2.25,2.014,8.3,8.3,0,0,0,2.151.626c.226.038.228.035.23.274v.5a1.057,1.057,0,0,0,1.117.994h0a1.146,1.146,0,0,0,.13-.016,1.036,1.036,0,0,0,.87-1.053c-.009-.2-.011-.412-.011-.618" transform="translate(-22.735 -6.248)" fill="#fff"/>
    </g>
  </g>
</svg>
