<svg id="pricing_page_icon" data-name="pricing page_icon" xmlns="http://www.w3.org/2000/svg" xmlns:xlink="http://www.w3.org/1999/xlink" width="60" height="60" viewBox="0 0 60 60">
  <defs>
    <clipPath id="clip-path">
      <rect id="Rectangle_3250" data-name="Rectangle 3250" width="28" height="25.526" fill="#083ecb"/>
    </clipPath>
    <clipPath id="clip-path-2">
      <rect id="Rectangle_253" data-name="Rectangle 253" width="25.801" height="25.968" transform="translate(0 0)" fill="none"/>
    </clipPath>
  </defs>
  <g id="Group_5427" data-name="Group 5427" transform="translate(-1025 -372)">
    <g id="Group_3889" data-name="Group 3889" transform="translate(4.172)">
      <rect id="Rectangle_143" data-name="Rectangle 143" width="60" height="60" transform="translate(1020.828 372)" fill="none"/>
      <g id="Group_5424" data-name="Group 5424" transform="matrix(0.035, -0.999, 0.999, 0.035, 1050.208, 399.234)">
        <g id="Group_5423" data-name="Group 5423" transform="translate(2.824 -0.975)">
          <g id="Group_5425" data-name="Group 5425" transform="translate(3.457 1.179)">
            <path id="Path_6103" data-name="Path 6103" d="M9.688,1.824a9.46,9.46,0,0,1,1.144,3A9.486,9.486,0,0,1,1.824,16.138" transform="translate(-1.824 -1.824)" fill="none" stroke="#ff7805" stroke-linecap="round" stroke-linejoin="round" stroke-width="1.5"/>
          </g>
        </g>
        <path id="Path_6104" data-name="Path 6104" d="M22.075,31.316l-5.306-1.909,4.318-3.659Z" transform="translate(-13.853 -14.236)" fill="#ff7805" stroke="#ff7805" stroke-linecap="round" stroke-linejoin="round" stroke-width="1"/>
      </g>
    </g>
  </g>
  <g id="Group_5426" data-name="Group 5426" transform="translate(-1333.339 -1124)">
    <g id="Group_5416" data-name="Group 5416" transform="translate(1362.14 1147.903)">
      <g id="Group_5419" data-name="Group 5419" transform="translate(0 0)" clip-path="url(#clip-path)">
        <path id="Path_6097" data-name="Path 6097" d="M11.647,14.87c.241.786.468,1.54.707,2.291.017.053.108.1.174.117a.74.74,0,0,0,.214,0H25.321a1.006,1.006,0,1,1,.165,2.006c-.063,0-.126,0-.188,0H11.8a1.037,1.037,0,0,1-1.178-.87Q8.145,10.363,5.672,2.3a.333.333,0,0,0-.39-.279c-1.365.01-2.73.008-4.095,0a1.745,1.745,0,0,1-.529-.073A1,1,0,0,1,.013.864,1.007,1.007,0,0,1,1.006.007c.7-.013,1.4,0,2.1,0h3.1a1.042,1.042,0,0,1,1.124.84C7.735,2.163,8.148,3.48,8.542,4.8a.335.335,0,0,0,.389.285q8.741-.009,17.481,0a2.011,2.011,0,0,1,.853.18A1.4,1.4,0,0,1,27.885,7.1q-1.159,3.1-2.322,6.194c-.1.269-.2.538-.3.806a1.034,1.034,0,0,1-1.121.774H11.647" transform="translate(0 0)" fill="#083ecb"/>
        <path id="Path_6098" data-name="Path 6098" d="M15.269,23.376a2.538,2.538,0,1,1-2.536-2.557,2.539,2.539,0,0,1,2.536,2.557" transform="translate(-0.187 -0.381)" fill="#083ecb"/>
        <path id="Path_6099" data-name="Path 6099" d="M23.4,23.374a2.539,2.539,0,1,1-2.538-2.554A2.539,2.539,0,0,1,23.4,23.374" transform="translate(-0.336 -0.381)" fill="#083ecb"/>
      </g>
    </g>
    <g id="Group_5420" data-name="Group 5420" transform="translate(-71.661 -9.097)">
      <g id="Group_5415" data-name="Group 5415" transform="translate(1408 1138.729)">
        <g id="Group_3979" data-name="Group 3979" transform="translate(0 0)" clip-path="url(#clip-path-2)">
          <path id="Path_6065" data-name="Path 6065" d="M12.937,25.95c-.5,0-1.017,0-1.545,0-.435,0-.665-.028-.806-.164a.6.6,0,0,1-.15-.293,3.875,3.875,0,0,1-.08-.529c-.048-.458-.109-.91-.173-1.389-.027-.2-.055-.41-.083-.621l-.879-.37L7.9,22.02l-.8.6-.017.014L5.514,23.792q-.11-.086-.211-.162a3.718,3.718,0,0,1-.378-.311c-.7-.693-1.375-1.367-2.18-2.178-.327-.329-.488-.495-.5-.67s.122-.358.391-.723c.293-.4.586-.792.9-1.208l.376-.5-.92-2.178L.122,15.42c-.018-.076-.036-.144-.054-.2a1.163,1.163,0,0,1-.059-.3V14.9C0,13.715-.008,12.49.009,11.286c0-.3.026-.488.131-.6a1.007,1.007,0,0,1,.6-.19l.2-.026c.465-.061.945-.125,1.42-.163a1.1,1.1,0,0,0,.553-.173.88.88,0,0,0,.33-.471c.073-.224.509-1.629.526-1.689A12.293,12.293,0,0,0,2.416,5.993l-.257-.344c.057-.086.112-.173.164-.258A2.816,2.816,0,0,1,2.675,4.9c.664-.691,1.376-1.4,2.176-2.183.269-.262.426-.39.6-.39.156,0,.321.1.631.325.409.293.828.591,1.234.879l.6.422,2.019-.781a.328.328,0,0,0,.062-.04l.1-.071c.024-.19.051-.383.078-.586.065-.475.132-.968.18-1.465A1.294,1.294,0,0,1,10.6.205c.142-.138.368-.2.807-.2C11.981,0,12.5,0,12.983,0c.533,0,1.026,0,1.507.012a1.011,1.011,0,0,1,.719.2,1.107,1.107,0,0,1,.245.713c.053.5.115,1.01.175,1.5.026.212.053.432.078.65.043.021.082.042.12.062a1.718,1.718,0,0,0,.221.105c.509.188,1.028.375,1.529.556l.409.149.5-.365c.385-.279.781-.568,1.172-.855.337-.248.536-.39.712-.39s.336.136.65.446c.734.722,1.465,1.455,2.178,2.181.5.513.511.65.084,1.237l-.041.055c-.336.46-.684.936-1.048,1.388a.739.739,0,0,0-.181.4.8.8,0,0,0,.1.428,8.5,8.5,0,0,1,.52,1.252.78.78,0,0,0,.3.439,1.042,1.042,0,0,0,.5.152c.54.05,1.1.114,1.7.2a.913.913,0,0,1,.522.174.685.685,0,0,1,.131.5c.014.966.01,1.93.009,2.952v1.27l-1.409.214h-.012l-1.554.235c-.073.166-.145.334-.214.5-.172.4-.351.818-.536,1.225a.781.781,0,0,0,.154.91c.205.247.4.51.586.764s.372.5.569.74a.561.561,0,0,1,.044.791.607.607,0,0,1-.084.077c-.691.693-1.367,1.374-2.08,2.1l-.827.836a5.365,5.365,0,0,1-1.381-.917,5.749,5.749,0,0,0-1.2-.829l-.917.39-1.235.52c-.028.222-.057.444-.085.66-.06.459-.121.934-.171,1.4a1.306,1.306,0,0,1-.228.781c-.136.135-.375.161-.762.164-.5,0-1.013.007-1.537.007M12.9,5.328a7.737,7.737,0,0,0-1.544.155,7.656,7.656,0,0,0-5.957,5.958,7.734,7.734,0,0,0,0,3.087,7.655,7.655,0,0,0,5.957,5.957,7.734,7.734,0,0,0,3.087,0A7.656,7.656,0,0,0,20.4,14.528a7.734,7.734,0,0,0,0-3.087,7.645,7.645,0,0,0-7.5-6.113" transform="translate(0 0)" fill="#083ecb"/>
        </g>
      </g>
      <g id="Path_6124" data-name="Path 6124" transform="translate(1411.843 1142.919)" fill="#ff7805">
        <path d="M 8.967589378356934 17.43517875671387 C 4.298549175262451 17.43517875671387 0.4999993741512299 13.63662910461426 0.4999993741512299 8.967589378356934 C 0.4999993741512299 4.298549175262451 4.298549175262451 0.4999993741512299 8.967589378356934 0.4999993741512299 C 13.63662910461426 0.4999993741512299 17.43517875671387 4.298549175262451 17.43517875671387 8.967589378356934 C 17.43517875671387 13.63662910461426 13.63662910461426 17.43517875671387 8.967589378356934 17.43517875671387 Z" stroke="none"/>
        <path d="M 8.967589378356934 1 C 4.574249267578125 1 1 4.574249267578125 1 8.967589378356934 C 1 13.36092948913574 4.574249267578125 16.93517875671387 8.967589378356934 16.93517875671387 C 13.36092948913574 16.93517875671387 16.93517875671387 13.36092948913574 16.93517875671387 8.967589378356934 C 16.93517875671387 4.574249267578125 13.36092948913574 1 8.967589378356934 1 M 8.967589378356934 0 C 13.92024993896484 0 17.93517875671387 4.01492977142334 17.93517875671387 8.967589378356934 C 17.93517875671387 13.92024993896484 13.92024993896484 17.93517875671387 8.967589378356934 17.93517875671387 C 4.01492977142334 17.93517875671387 0 13.92024993896484 0 8.967589378356934 C 0 4.01492977142334 4.01492977142334 0 8.967589378356934 0 Z" stroke="none" fill="#fff"/>
      </g>
      <path id="Path_6100" data-name="Path 6100" d="M43,29.922c.04-.011.062-.019.084-.024s.056-.011.083-.015a3.653,3.653,0,0,0,1.524-.555,2.72,2.72,0,0,0,1.228-1.753,3.82,3.82,0,0,0,.043-1.273,2.447,2.447,0,0,0-.67-1.441A3.264,3.264,0,0,0,43.834,24q-.815-.245-1.627-.5a1.763,1.763,0,0,1-.946-.673,1.454,1.454,0,0,1,.279-2.036h0l.046-.034a1.377,1.377,0,0,1,1.571-.118,1.415,1.415,0,0,1,.694.948c.039.158.088.316.14.472a.736.736,0,0,0,.6.515,1.358,1.358,0,0,0,.294.017.908.908,0,0,0,.879-.914,1.57,1.57,0,0,0-.13-.587,3.268,3.268,0,0,0-2.113-1.907c-.163-.056-.333-.088-.515-.134v-.393a.589.589,0,0,0-1.143-.18,1.213,1.213,0,0,0-.036.262,1.378,1.378,0,0,1-.019.319c-.045.011-.086.023-.127.03a3.063,3.063,0,0,0-1.267.548,2.883,2.883,0,0,0-1.184,1.643,3.619,3.619,0,0,0-.03,1.632,2.269,2.269,0,0,0,.371.874,3.615,3.615,0,0,0,1.413,1.132,10.416,10.416,0,0,0,1.745.625,2.832,2.832,0,0,1,.96.457,1.057,1.057,0,0,1,.457.717,2.2,2.2,0,0,1,.015.5,1.188,1.188,0,0,1-.3.686,1.731,1.731,0,0,1-1.566.591,1.808,1.808,0,0,1-.919-.358,1.92,1.92,0,0,1-.555-.751c-.076-.168-.141-.337-.22-.5a1.075,1.075,0,0,0-.162-.261.953.953,0,0,0-1-.2.932.932,0,0,0-.58,1.093,2.433,2.433,0,0,0,.393.9A3.014,3.014,0,0,0,40.5,29.526a4.627,4.627,0,0,0,1.2.349c.126.021.127.02.128.153v.281a.589.589,0,0,0,.622.554h0a.638.638,0,0,0,.072-.009.577.577,0,0,0,.485-.587C43,30.152,43,30.037,43,29.922" transform="translate(1378.138 1127.24)" fill="#fff"/>
    </g>
  </g>
</svg>
