<svg id="sustainability_icon" xmlns="http://www.w3.org/2000/svg" width="50" height="50" viewBox="0 0 50 50">
  <g id="Group_3934" data-name="Group 3934">
    <g id="Group_3936" data-name="Group 3936">
      <rect id="Rectangle_143" data-name="Rectangle 143" width="50" height="50" fill="#f5f9ff"/>
      <g id="Group_3935" data-name="Group 3935" transform="translate(4.969 7.024)">
        <g id="Group_3871" data-name="Group 3871">
          <g id="Group_3870" data-name="Group 3870" transform="translate(0 0)">
            <g id="Group_3872" data-name="Group 3872" transform="translate(0 0)">
              <path id="Path_24" data-name="Path 24" d="M8.862,29.726V25.374h-.8a14.078,14.078,0,0,1-3.093-.229A6.361,6.361,0,0,1,.274,21.023a7.282,7.282,0,0,1-.229-2.748A18.331,18.331,0,0,1,4.74,18.16,6.181,6.181,0,0,1,8.4,19.534l.344.344V15.642H6.114a6.162,6.162,0,0,1-5.954-5.5,3.763,3.763,0,0,1,0-1.6h4.35a6.257,6.257,0,0,1,4.352,1.832c.229.114.344.229.344.343.114-.229.229-.343.229-.458A6.489,6.489,0,0,1,15.16,6.709h4.466A5.624,5.624,0,0,1,19.4,9.457a6.328,6.328,0,0,1-5.153,4.352,9.9,9.9,0,0,1-1.832.114H10.924V18.16a1.59,1.59,0,0,0,.458-.343,5.69,5.69,0,0,1,3.779-1.374h4.466a5.4,5.4,0,0,1-.179,2.175c-.341,1.51-2.225,4.352-4.858,4.81a5.607,5.607,0,0,1-1.374.114h-2.29v6.184ZM7.03,23.542h0Zm-1.488-3.32a4.094,4.094,0,0,1,3.207,2.862v.344c0-.115.114-.115,0-.115v-.229a4.094,4.094,0,0,0-3.207-2.862c-1.145-.114-2.406-.229-3.549-.229,1.144,0,2.4.115,3.549.229m3.207,3.32h0Zm-.8,0h0Zm4.81-1.717h0Zm4.809-3.207a.418.418,0,0,1,.115-.343.418.418,0,0,0-.115.343m-1.03-.343Zm1.145,0h0ZM7.03,13.809h0Zm1.6,0h0M2.907,10.374H4.74a4.157,4.157,0,0,1,3.894,3.091v0C8.175,11.633,6.572,10.374,2.907,10.374Zm2.29,3.32-.114-.114Zm8.359-1.717h0Zm2.864-1.145a4.229,4.229,0,0,1-2.748,1.145c.916,0,3.779-2.519,4.008-3.32m-6.069,1.717c.114-.115.229-.344.343-.458-.114.114-.229.343-.343.458M17.68,8.541h0Zm-.458,0h0Z" transform="translate(0 3.096)" fill="#ff7805"/>
              <path id="Path_25" data-name="Path 25" d="M15.948,25.58V23.863a2.515,2.515,0,0,1,1.6.229,4.729,4.729,0,0,1,1.259.8,2.464,2.464,0,0,0,3.322,0,3.549,3.549,0,0,1,2.06-1.03,4.421,4.421,0,0,1,3.207.572c.229.115.458.344.687.458a2.44,2.44,0,0,0,3.207,0,3.92,3.92,0,0,1,2.061-1.03c.458,0,.916-.115,1.374-.115V25.58h-.344a3.107,3.107,0,0,0-1.946.687,8.585,8.585,0,0,1-1.374.8,4.055,4.055,0,0,1-3.779-.458c-.229-.229-.573-.343-.8-.572a2.245,2.245,0,0,0-2.862,0,2.444,2.444,0,0,0-.572.458,4.312,4.312,0,0,1-4.925.114c-.229-.114-.458-.343-.687-.458s-.458-.343-.687-.457c-.229,0-.572-.115-.8-.115" transform="translate(5.166 8.616)" fill="#083ecb"/>
              <path id="Path_26" data-name="Path 26" d="M34.843,17.316a3.138,3.138,0,0,0-2.633.916,4.3,4.3,0,0,1-5.039-.115,2.483,2.483,0,0,0-.572-.343,2.406,2.406,0,0,0-2.864,0l-1.03.687a4.164,4.164,0,0,1-4.581-.115c-.343-.229-.572-.458-.916-.687a5.54,5.54,0,0,0-1.259-.457V15.484a3.3,3.3,0,0,1,1.832.344,7.738,7.738,0,0,1,1.259.8,2.576,2.576,0,0,0,3.091,0,6.716,6.716,0,0,1,1.948-1.145,4.035,4.035,0,0,1,3.436.573,2.5,2.5,0,0,1,.572.458,2.44,2.44,0,0,0,3.207,0,4.28,4.28,0,0,1,2.862-1.145h.573Z" transform="translate(5.166 5.888)" fill="#083ecb"/>
              <path id="Path_27" data-name="Path 27" d="M34.871,19.725v1.832a2.95,2.95,0,0,0-2.519.8,4.3,4.3,0,0,1-5.382,0,2.742,2.742,0,0,0-1.374-.8,2.39,2.39,0,0,0-1.946.458,4.828,4.828,0,0,1-.8.572,4.3,4.3,0,0,1-5.038-.114,2.509,2.509,0,0,0-.916-.573l-1.031-.343V19.725a2.958,2.958,0,0,1,2.519.8,2.554,2.554,0,0,1,.573.458,2.118,2.118,0,0,0,2.862-.114c.458-.344.8-.573,1.259-.916a4.246,4.246,0,0,1,4.352.458,1.59,1.59,0,0,0,.458.343,2.286,2.286,0,0,0,3.091,0l1.718-1.03a6.958,6.958,0,0,1,2.175,0" transform="translate(5.138 7.257)" fill="#083ecb"/>
              <path id="Path_28" data-name="Path 28" d="M16.6,14.955a.493.493,0,0,1-.458-.458V9.344a3.337,3.337,0,0,1,2.519-3.32,3.507,3.507,0,0,1,.916-.229h4.237a3.526,3.526,0,0,1,2.862,1.717,3.224,3.224,0,0,1,.458,1.717v5.154c0,.229-.229.572-.458.572Z" transform="translate(5.227 2.8)" fill="#083ecb"/>
              <path id="Path_29" data-name="Path 29" d="M25.677,14.248V8.98a3.754,3.754,0,0,0-.458-1.946V6.92h3.894A2.638,2.638,0,0,1,31.4,8.179,2.194,2.194,0,0,1,31.861,9.9v4.238a.63.63,0,0,1-.344.572H26.135c-.229-.115-.458-.343-.458-.458" transform="translate(8.169 3.165)" fill="#083ecb"/>
              <path id="Path_30" data-name="Path 30" d="M21.186,7.328a3.618,3.618,0,0,1-3.665-3.665,3.665,3.665,0,0,1,7.329,0,3.618,3.618,0,0,1-3.665,3.665" transform="translate(5.675)" fill="#083ecb"/>
              <path id="Path_31" data-name="Path 31" d="M27.419,1.989a3.157,3.157,0,0,1,3.207,2.978,3.1,3.1,0,0,1-6.184.458V5.309a3.181,3.181,0,0,1,2.978-3.32" transform="translate(7.915 0.644)" fill="#083ecb"/>
            </g>
          </g>
        </g>
      </g>
    </g>
  </g>
</svg>
