<svg id="valuation_at_IPO_icon" data-name="valuation at IPO_icon" xmlns="http://www.w3.org/2000/svg" xmlns:xlink="http://www.w3.org/1999/xlink" width="60" height="60" viewBox="0 0 60 60">
  <defs>
    <clipPath id="clip-path">
      <rect id="Rectangle_190" data-name="Rectangle 190" width="60" height="47.751" fill="none"/>
    </clipPath>
  </defs>
  <g id="Group_3889" data-name="Group 3889" transform="translate(-1020.828 -372)">
    <rect id="Rectangle_143" data-name="Rectangle 143" width="60" height="60" transform="translate(1020.828 372)" fill="#fff"/>
    <g id="Group_3924" data-name="Group 3924" transform="translate(1020.828 380.703)">
      <g id="Group_3923" data-name="Group 3923" transform="translate(0 0)" clip-path="url(#clip-path)">
        <path id="Path_108" data-name="Path 108" d="M4.254.5H29.572a3.754,3.754,0,0,1,3.754,3.754V36.137a3.754,3.754,0,0,1-3.754,3.754H4.254A3.754,3.754,0,0,1,.5,36.137V4.254A3.754,3.754,0,0,1,4.254.5" transform="translate(0.029 0.029)" fill="#083ecb"/>
        <rect id="Rectangle_185" data-name="Rectangle 185" width="32.826" height="39.391" rx="3.55" transform="translate(0.529 0.529)" fill="none" stroke="#fff" stroke-width="1"/>
        <rect id="Rectangle_186" data-name="Rectangle 186" width="5.008" height="20.092" transform="translate(6.858 11.802)" fill="#fff"/>
        <rect id="Rectangle_187" data-name="Rectangle 187" width="5.008" height="13.998" transform="translate(14.439 17.897)" fill="#fff"/>
        <rect id="Rectangle_188" data-name="Rectangle 188" width="5.008" height="21.161" transform="translate(22.02 10.733)" fill="#fff"/>
        <path id="Path_109" data-name="Path 109" d="M33.784,7.517H53.543a4.23,4.23,0,0,1,4.23,4.23v25.4a4.23,4.23,0,0,1-4.23,4.23H33.784a4.23,4.23,0,0,1-4.23-4.23v-25.4a4.23,4.23,0,0,1,4.23-4.23" transform="translate(1.699 0.433)" fill="#05c1a4"/>
        <rect id="Rectangle_189" data-name="Rectangle 189" width="28.219" height="33.859" rx="4" transform="translate(31.253 7.95)" fill="none" stroke="#fff" stroke-width="2"/>
        <path id="Path_110" data-name="Path 110" d="M35.63,24.921a2.035,2.035,0,1,1-2.035,2.035,2.034,2.034,0,0,1,2.035-2.035" transform="translate(1.931 1.433)" fill="#083ecb"/>
        <path id="Path_111" data-name="Path 111" d="M43.041,24.921a2.035,2.035,0,1,1-2.035,2.035,2.034,2.034,0,0,1,2.035-2.035" transform="translate(2.357 1.433)" fill="#083ecb"/>
        <path id="Path_112" data-name="Path 112" d="M50.386,24.921a2.035,2.035,0,1,1-2.035,2.035,2.034,2.034,0,0,1,2.035-2.035" transform="translate(2.779 1.433)" fill="#083ecb"/>
        <path id="Path_113" data-name="Path 113" d="M43.042,11.951a2.035,2.035,0,1,1-2.035,2.035,2.034,2.034,0,0,1,2.035-2.035" transform="translate(2.357 0.687)" fill="#083ecb"/>
        <path id="Path_114" data-name="Path 114" d="M32.543,30.3v2.416h6.292V30.3c0-.667-.939-1.209-2.1-1.209h-2.1c-1.158,0-2.1.541-2.1,1.209" transform="translate(1.87 1.672)" fill="#083ecb"/>
        <path id="Path_115" data-name="Path 115" d="M39.955,30.3v2.416h6.292V30.3c0-.667-.939-1.209-2.1-1.209H42.054c-1.163,0-2.1.541-2.1,1.209" transform="translate(2.296 1.672)" fill="#083ecb"/>
        <path id="Path_116" data-name="Path 116" d="M47.3,30.3v2.416h6.292V30.3c0-.667-.939-1.209-2.1-1.209H49.4c-1.158,0-2.1.541-2.1,1.209" transform="translate(2.719 1.672)" fill="#083ecb"/>
        <path id="Path_117" data-name="Path 117" d="M39.956,17.33v2.416h6.292V17.33c0-.667-.939-1.209-2.1-1.209h-2.1c-1.158,0-2.1.541-2.1,1.209" transform="translate(2.296 0.927)" fill="#083ecb"/>
        <path id="Path_118" data-name="Path 118" d="M35.869,28.518V23.591a1.76,1.76,0,0,1,.035-.349,1.519,1.519,0,0,1,1.494-1.22l5.182-.008h.455v6.758h.682V22.021h.626c1.646,0,3.294.017,4.941-.006h.036a1.58,1.58,0,0,1,1.565,1.595h0c-.011,1.721,0,3.441,0,5.162h.669V23.477a1.949,1.949,0,0,0-.3-1.03,2.157,2.157,0,0,0-1.938-1.1H37.429a2.249,2.249,0,0,0-.491.052,2.187,2.187,0,0,0-1.732,2.166v5.207h.668Z" transform="translate(2.023 1.227)" fill="#083ecb"/>
        <path id="Path_119" data-name="Path 119" d="M13.616,37.76A12.836,12.836,0,1,1,26.441,50.606h-.217A12.848,12.848,0,0,1,13.616,37.76" transform="translate(4.259 -3.783)" fill="#05c1a4"/>
        <path id="Path_120" data-name="Path 120" d="M26.69,24.23h.1A13.763,13.763,0,1,1,12.907,37.987v-.012A13.779,13.779,0,0,1,26.69,24.23m0,25.666a11.9,11.9,0,0,0,.082-23.8h-.086a11.9,11.9,0,0,0-.221,23.8Z" transform="translate(4.035 -4.005)" fill="#fff"/>
        <path id="Path_121" data-name="Path 121" d="M25.41,44.594c.055-.016.086-.026.117-.034a1,1,0,0,1,.117-.021,5.092,5.092,0,0,0,2.126-.789,3.865,3.865,0,0,0,1.719-2.482,5.487,5.487,0,0,0,.059-1.807,3.5,3.5,0,0,0-.937-2.044,4.547,4.547,0,0,0-2.044-1.225q-1.14-.349-2.274-.712a2.469,2.469,0,0,1-1.325-.951,2.081,2.081,0,0,1,.422-2.912l.034-.024a1.907,1.907,0,0,1,2.2-.167,2,2,0,0,1,.972,1.344c.054.225.122.447.195.668a1.027,1.027,0,0,0,.835.731,1.8,1.8,0,0,0,.412.024,1.279,1.279,0,0,0,1.23-1.3,2.266,2.266,0,0,0-.183-.833,4.6,4.6,0,0,0-2.956-2.7c-.229-.074-.467-.124-.721-.191v-.558a.823.823,0,0,0-1.6-.255,1.7,1.7,0,0,0-.051.372,2,2,0,0,1-.026.453c-.064.016-.121.033-.179.043A4.24,4.24,0,0,0,21.779,30a4.087,4.087,0,0,0-1.657,2.332,5.225,5.225,0,0,0-.041,2.314,3.259,3.259,0,0,0,.518,1.24,5.083,5.083,0,0,0,1.973,1.6,14.418,14.418,0,0,0,2.443.887,3.931,3.931,0,0,1,1.343.646,1.5,1.5,0,0,1,.635,1.017,3.091,3.091,0,0,1,.021.714,1.7,1.7,0,0,1-.417.973,2.4,2.4,0,0,1-2.191.839,2.51,2.51,0,0,1-1.286-.509A2.757,2.757,0,0,1,22.343,41c-.105-.237-.2-.48-.306-.713a1.558,1.558,0,0,0-.226-.368A1.325,1.325,0,0,0,19.6,41.179a3.522,3.522,0,0,0,.547,1.272A4.256,4.256,0,0,0,21.9,44.038a6.439,6.439,0,0,0,1.677.495c.176.029.176.028.179.213v.395a.828.828,0,0,0,.864.789h0a.92.92,0,0,0,.105-.013.815.815,0,0,0,.68-.833c.005-.159.005-.328.005-.491" transform="translate(6.133 -2.877)" fill="#fff"/>
      </g>
    </g>
  </g>
</svg>
