<svg id="women_icon" xmlns="http://www.w3.org/2000/svg" xmlns:xlink="http://www.w3.org/1999/xlink" width="60" height="60" viewBox="0 0 60 60">
  <defs>
    <clipPath id="clip-path">
      <rect id="Rectangle_144" data-name="Rectangle 144" width="44.748" height="59.717" fill="none"/>
    </clipPath>
    <clipPath id="clip-path-2">
      <rect id="Rectangle_145" data-name="Rectangle 145" width="18.974" height="29.405" transform="translate(0 0)" fill="none"/>
    </clipPath>
  </defs>
  <rect id="Rectangle_139" data-name="Rectangle 139" width="60" height="60" fill="#fff"/>
  <g id="Group_5481" data-name="Group 5481" transform="translate(-746 -379.397)">
    <path id="Path_48" data-name="Path 48" d="M6.795,39.879a4.7,4.7,0,1,1-4.7,4.7,4.7,4.7,0,0,1,4.7-4.7" transform="translate(751.166 374.265)" fill="#083ecb"/>
    <path id="Path_49" data-name="Path 49" d="M21.546,39.879a4.7,4.7,0,1,1-4.7,4.7,4.7,4.7,0,0,1,4.7-4.7" transform="translate(754.533 374.265)" fill="#083ecb"/>
    <path id="Path_50" data-name="Path 50" d="M36.165,39.879a4.7,4.7,0,1,1-4.7,4.7,4.7,4.7,0,0,1,4.7-4.7" transform="translate(757.871 374.265)" fill="#083ecb"/>
    <path id="Path_51" data-name="Path 51" d="M0,50.974v5.584H14.543V50.972c0-1.543-2.172-2.794-4.849-2.794H4.846C2.172,48.179,0,49.433,0,50.974" transform="translate(750.688 376.159)" fill="#083ecb"/>
    <path id="Path_52" data-name="Path 52" d="M14.751,50.974v5.584H29.3V50.972c0-1.543-2.172-2.794-4.849-2.794H19.6c-2.678,0-4.849,1.255-4.849,2.8" transform="translate(754.056 376.159)" fill="#083ecb"/>
    <path id="Path_53" data-name="Path 53" d="M29.371,50.974v5.584H43.918V50.972c0-1.543-2.172-2.794-4.849-2.794H34.22c-2.678,0-4.849,1.255-4.849,2.8" transform="translate(757.394 376.159)" fill="#083ecb"/>
    <path id="Path_54" data-name="Path 54" d="M6.837,37.952a4.133,4.133,0,0,1,.08-.807A3.511,3.511,0,0,1,10.37,34.32q5.986-.013,11.967-.02h1.05V40.55h1.577V34.32h1.447c3.808,0,7.616.039,11.423-.015h.084a3.654,3.654,0,0,1,3.62,3.685c-.025,3.976,0-1.42,0,2.558h1.548c0-4.08,0,1.214,0-2.867A4.508,4.508,0,0,0,42.4,35.3a4.987,4.987,0,0,0-4.481-2.541H10.434a5.181,5.181,0,0,0-1.135.123A5.054,5.054,0,0,0,5.293,37.89c-.009,4.013-.009-1.35,0,2.663H6.838Z" transform="translate(751.895 378.639)" fill="#083ecb"/>
  </g>
  <g id="Group_3885" data-name="Group 3885" transform="translate(20.514 0.595)">
    <g id="Group_3884" data-name="Group 3884" clip-path="url(#clip-path-2)">
      <path id="Path_55" data-name="Path 55" d="M9.487,0A9.487,9.487,0,1,1,0,9.487,9.486,9.486,0,0,1,9.487,0" fill="#b273fc"/>
      <path id="Path_56" data-name="Path 56" d="M9.486,14.36h0a1.624,1.624,0,0,1,1.568,1.672v11.7a1.623,1.623,0,0,1-1.568,1.673,1.622,1.622,0,0,1-1.567-1.673v-11.7A1.622,1.622,0,0,1,9.486,14.36" fill="#b273fc"/>
      <path id="Path_57" data-name="Path 57" d="M15.666,23.155v.282a1.437,1.437,0,0,1-1.357,1.506H4.663a1.438,1.438,0,0,1-1.356-1.506v-.282a1.438,1.438,0,0,1,1.356-1.507h9.646a1.437,1.437,0,0,1,1.357,1.507" fill="#b273fc"/>
      <path id="Path_58" data-name="Path 58" d="M9.487,2.846A6.641,6.641,0,1,1,2.846,9.487,6.641,6.641,0,0,1,9.487,2.846" fill="#fff"/>
    </g>
  </g>
</svg>
